{"glyphs":{"0":{"ha":721,"x_min":85,"x_max":840,"o":"m 648 607 q 649 648 653 629 q 635 683 646 668 q 607 706 624 697 q 570 714 591 714 l 454 714 q 413 706 433 714 q 376 683 393 697 q 346 648 359 668 q 329 607 334 629 l 278 364 q 278 323 274 342 q 292 289 281 303 q 319 266 303 274 q 357 257 336 257 l 472 257 q 514 266 493 257 q 551 288 534 274 q 581 322 568 302 q 597 364 593 342 l 648 607 m 714 243 q 676 144 703 189 q 604 61 649 99 q 414 -16 517 -16 l 298 -16 q 142 61 197 -16 q 110 243 85 138 l 212 729 q 251 827 224 783 q 322 909 277 872 q 513 986 411 986 l 628 986 q 782 909 728 986 q 818 729 840 836 l 714 243 z "},"1":{"ha":721,"x_min":228,"x_max":642,"o":"m 228 -16 l 286 257 l 345 257 l 441 714 l 383 714 l 441 986 l 642 986 l 486 257 l 545 257 l 486 -16 l 228 -16 z "},"2":{"ha":721,"x_min":53,"x_max":840,"o":"m 53 -16 l 121 304 q 233 485 144 408 q 325 542 278 524 q 422 561 371 561 l 509 561 q 537 567 523 561 q 564 584 551 574 q 585 609 576 595 q 597 637 593 623 q 598 667 601 653 q 587 691 595 681 q 567 708 579 702 q 541 714 555 714 l 208 714 l 267 986 l 628 986 q 782 909 728 986 q 818 729 840 836 l 804 668 q 766 571 793 615 q 693 488 738 526 q 505 411 606 411 l 361 411 q 332 405 347 411 q 305 388 317 399 q 284 364 293 378 q 271 335 275 350 l 256 257 l 717 257 l 659 -16 l 53 -16 z "},"3":{"ha":721,"x_min":53,"x_max":840,"o":"m 714 243 q 675 145 703 190 q 603 62 648 100 q 414 -16 515 -16 l 53 -16 l 111 257 l 443 257 q 472 263 458 257 q 499 280 487 269 q 520 305 511 291 q 532 335 528 319 q 533 364 536 350 q 523 388 530 378 q 503 405 515 399 q 476 411 491 411 l 260 411 l 292 561 l 509 561 q 537 567 523 561 q 564 584 551 574 q 585 609 576 595 q 597 637 593 623 q 598 667 601 653 q 587 691 595 681 q 567 708 579 702 q 541 714 555 714 l 208 714 l 267 986 l 628 986 q 782 909 728 986 q 818 729 840 836 l 814 717 q 786 637 806 675 q 734 567 767 600 q 685 519 711 539 q 628 485 659 498 q 708 387 686 451 q 714 243 730 323 z "},"4":{"ha":721,"x_min":90,"x_max":872,"o":"m 517 -16 l 553 155 l 90 155 l 215 743 l 358 743 l 292 428 l 611 428 l 730 986 l 872 986 l 659 -16 l 517 -16 z "},"5":{"ha":721,"x_min":53,"x_max":815,"o":"m 714 243 q 675 145 703 190 q 603 62 648 100 q 414 -16 515 -16 l 53 -16 l 111 257 l 443 257 q 472 263 458 257 q 499 280 487 269 q 520 305 511 291 q 532 335 528 319 q 533 364 536 350 q 523 388 530 378 q 503 405 515 399 q 476 411 491 411 l 144 411 l 267 986 l 815 986 l 757 714 l 353 714 l 319 561 l 538 561 q 693 485 638 561 q 726 304 749 407 l 714 243 z "},"6":{"ha":721,"x_min":97,"x_max":815,"o":"m 590 335 q 591 364 594 350 q 581 388 589 378 q 561 405 573 399 q 534 411 549 411 l 361 411 q 332 405 347 411 q 305 388 317 399 q 284 364 293 378 q 271 335 275 350 q 271 305 267 319 q 282 280 274 291 q 301 263 290 269 q 328 257 313 257 l 501 257 q 531 263 516 257 q 557 280 545 269 q 578 305 570 291 q 590 335 587 319 m 714 243 q 676 144 703 189 q 604 61 649 99 q 414 -16 517 -16 l 298 -16 q 143 62 199 -16 q 106 145 115 100 q 110 243 97 190 l 212 729 q 251 828 224 784 q 322 911 277 872 q 414 968 367 949 q 513 986 461 986 l 815 986 l 757 714 l 454 714 q 412 706 433 714 q 375 684 392 698 q 346 650 358 669 q 329 607 334 630 l 313 525 q 353 551 330 542 q 399 561 375 561 l 538 561 q 693 485 638 561 q 726 304 749 407 l 714 243 z "},"7":{"ha":721,"x_min":43,"x_max":872,"o":"m 237 -16 l 43 -16 l 615 714 l 208 714 l 267 986 l 872 986 l 817 725 l 237 -16 z "},"8":{"ha":721,"x_min":97,"x_max":829,"o":"m 656 637 q 656 667 659 653 q 645 691 653 681 q 625 708 637 702 q 599 714 613 714 l 425 714 q 396 708 410 714 q 369 691 381 702 q 348 667 357 681 q 336 637 339 653 q 335 609 332 623 q 346 584 338 595 q 366 567 354 574 q 393 561 378 561 l 567 561 q 595 567 581 561 q 622 584 610 574 q 643 609 634 595 q 656 637 652 623 m 590 335 q 591 364 594 350 q 581 388 589 378 q 561 405 573 399 q 534 411 549 411 l 361 411 q 332 405 347 411 q 305 388 317 399 q 284 364 293 378 q 271 335 275 350 q 271 305 267 319 q 282 280 274 291 q 301 263 290 269 q 328 257 313 257 l 501 257 q 531 263 516 257 q 557 280 545 269 q 578 305 570 291 q 590 335 587 319 m 714 243 q 676 144 703 189 q 604 61 649 99 q 414 -16 517 -16 l 298 -16 q 142 61 197 -16 q 105 144 113 99 q 110 243 97 189 l 117 279 q 166 396 130 345 q 260 486 202 448 q 204 693 177 563 l 212 729 q 251 828 224 784 q 322 911 277 872 q 414 968 367 949 q 513 986 461 986 l 628 986 q 718 968 679 986 q 783 911 756 949 q 820 828 812 872 q 818 729 829 784 l 810 693 q 667 486 783 562 q 722 279 749 410 l 714 243 z "},"9":{"ha":721,"x_min":111,"x_max":840,"o":"m 656 637 q 656 667 659 653 q 645 691 653 681 q 625 708 637 702 q 599 714 613 714 l 425 714 q 396 708 410 714 q 369 691 381 702 q 348 667 357 681 q 336 637 339 653 q 335 609 332 623 q 346 584 338 595 q 366 567 354 574 q 393 561 378 561 l 567 561 q 595 567 581 561 q 622 584 610 574 q 643 609 634 595 q 656 637 652 623 m 714 243 q 676 144 703 189 q 604 61 649 99 q 414 -16 517 -16 l 111 -16 l 170 257 l 472 257 q 514 266 493 257 q 551 288 534 274 q 581 322 568 302 q 597 364 593 342 l 615 447 q 574 420 595 429 q 529 411 552 411 l 390 411 q 233 488 289 411 q 196 571 205 526 q 199 668 188 615 l 212 729 q 251 828 224 784 q 322 911 277 872 q 414 968 367 949 q 513 986 461 986 l 628 986 q 782 909 728 986 q 818 729 840 836 l 714 243 z "}," ":{"ha":519,"x_min":0,"x_max":0,"o":""},"!":{"ha":306,"x_min":53,"x_max":458,"o":"m 53 -16 l 96 184 l 286 184 l 243 -16 l 53 -16 m 257 277 l 163 277 l 267 986 l 458 986 l 257 277 z "},"\"":{"ha":558,"x_min":249,"x_max":725,"o":"m 345 677 l 249 677 l 278 1047 l 471 1047 l 345 677 m 597 677 l 503 677 l 532 1047 l 725 1047 l 597 677 z "},"#":{"ha":743,"x_min":157,"x_max":864,"o":"m 439 597 l 550 597 l 585 714 l 473 714 l 439 597 m 632 471 l 589 325 l 471 325 l 511 471 l 401 471 l 358 325 l 239 325 l 281 471 l 157 471 l 184 597 l 319 597 l 354 714 l 208 714 l 236 840 l 392 840 l 433 986 l 554 986 l 511 840 l 623 840 l 665 986 l 785 986 l 743 840 l 864 840 l 838 714 l 704 714 l 671 597 l 812 597 l 785 471 l 632 471 z "},"$":{"ha":721,"x_min":81,"x_max":872,"o":"m 741 364 q 700 267 728 311 q 628 183 673 222 q 454 107 547 113 l 428 -16 l 286 -16 l 313 107 l 81 107 l 138 379 l 498 379 q 516 383 507 379 q 532 393 525 387 q 545 407 540 399 q 551 425 550 416 q 546 458 557 445 q 518 471 536 471 l 403 471 q 314 490 352 471 q 248 549 276 510 q 209 631 218 587 q 212 729 201 676 q 251 827 224 783 q 323 909 279 872 q 408 965 364 945 q 500 986 452 984 l 525 1108 l 667 1108 l 642 986 l 872 986 l 814 714 l 454 714 q 437 711 446 714 q 420 701 428 707 q 408 687 413 695 q 401 668 403 678 q 407 636 396 649 q 435 623 417 623 l 550 623 q 704 546 650 623 q 742 462 734 507 q 741 364 751 417 z "},"%":{"ha":1263,"x_min":158,"x_max":1319,"o":"m 1169 364 q 1170 394 1173 380 q 1159 418 1166 408 q 1139 435 1151 429 q 1112 441 1127 441 l 1025 441 q 996 435 1010 441 q 970 418 982 429 q 949 394 958 408 q 937 364 941 380 l 918 273 q 917 244 914 258 q 927 220 920 230 q 946 203 935 210 q 974 197 958 197 l 1060 197 q 1090 203 1076 197 q 1117 219 1105 209 q 1138 243 1129 229 q 1150 273 1146 257 l 1169 364 m 551 699 q 542 753 557 730 q 497 775 527 775 l 410 775 q 381 769 395 775 q 354 752 366 763 q 333 728 342 742 q 321 699 323 714 l 301 607 q 301 578 298 592 q 311 554 304 564 q 331 537 319 543 q 357 530 342 530 l 444 530 q 474 536 460 530 q 500 552 489 542 q 520 577 512 563 q 532 607 528 591 l 551 699 m 557 -16 l 771 986 l 914 986 l 700 -16 l 557 -16 m 628 517 q 598 440 619 475 q 543 376 576 406 q 400 319 477 319 l 313 319 q 193 378 237 319 q 165 441 172 407 q 167 517 158 476 l 225 790 q 256 864 235 830 q 310 928 277 899 q 454 986 378 986 l 542 986 q 660 928 618 986 q 686 790 705 869 l 628 517 m 1244 182 q 1214 107 1235 141 q 1158 43 1193 73 q 1089 -1 1124 14 q 1015 -16 1054 -16 l 928 -16 q 810 43 854 -16 q 783 182 767 101 l 842 456 q 926 595 858 536 q 997 638 961 624 q 1071 653 1032 653 l 1157 653 q 1276 595 1234 653 q 1303 456 1319 537 l 1244 182 z "},"&":{"ha":721,"x_min":97,"x_max":872,"o":"m 329 335 q 329 305 326 319 q 339 280 332 291 q 359 263 347 269 q 386 257 371 257 l 504 257 l 538 411 l 419 411 q 390 405 404 411 q 363 388 375 399 q 342 364 351 378 q 329 335 333 350 m 298 -16 q 143 62 199 -16 q 106 145 115 100 q 110 243 97 190 q 135 320 118 283 q 175 388 151 357 q 231 444 199 419 q 298 486 262 469 q 248 528 269 503 q 217 584 228 553 q 205 652 206 616 q 212 729 203 689 q 251 827 224 783 q 323 909 279 872 q 513 986 412 986 l 872 986 l 814 714 l 484 714 q 453 708 468 714 q 427 691 439 702 q 406 667 415 681 q 395 637 397 653 q 393 609 391 623 q 404 584 396 595 q 424 567 412 574 q 452 561 436 561 l 782 561 l 750 411 l 681 411 l 647 257 l 717 257 l 659 -16 l 298 -16 z "},"'":{"ha":306,"x_min":249,"x_max":471,"o":"m 345 677 l 249 677 l 278 1047 l 471 1047 l 345 677 z "},"(":{"ha":432,"x_min":71,"x_max":551,"o":"m 273 -136 q 118 -60 174 -136 q 80 24 90 -21 q 82 121 71 68 l 237 850 q 277 948 249 903 q 349 1032 304 994 q 551 1108 437 1108 l 493 836 q 447 828 469 836 q 406 805 425 819 q 373 770 387 790 q 355 729 360 751 l 253 243 q 252 202 248 221 q 270 168 257 182 q 302 145 283 153 q 345 136 321 136 l 290 -122 l 273 -136 z "},")":{"ha":432,"x_min":86,"x_max":576,"o":"m 400 121 q 361 24 389 68 q 289 -60 334 -21 q 86 -136 200 -136 l 144 136 q 191 145 168 136 q 233 168 214 153 q 265 202 252 182 q 283 243 278 221 l 386 729 q 386 770 391 751 q 368 805 380 790 q 335 828 355 819 q 293 836 316 836 l 351 1108 q 450 1089 409 1108 q 519 1032 491 1071 q 555 850 576 956 l 400 121 z "},"*":{"ha":589,"x_min":193,"x_max":705,"o":"m 590 546 l 486 619 l 454 471 l 335 471 l 366 619 l 228 546 l 193 656 l 329 729 l 224 803 l 307 913 l 412 838 l 444 986 l 566 986 l 532 838 l 669 913 l 705 803 l 568 729 l 675 656 l 590 546 z "},"+":{"ha":606,"x_min":134,"x_max":650,"o":"m 439 363 l 397 168 l 277 168 l 318 363 l 134 363 l 160 489 l 345 489 l 386 684 l 507 684 l 465 489 l 650 489 l 624 363 l 439 363 z "},",":{"ha":306,"x_min":65,"x_max":288,"o":"m 160 -184 l 65 -184 l 94 184 l 288 184 l 160 -184 z "},"-":{"ha":606,"x_min":134,"x_max":650,"o":"m 134 363 l 160 489 l 650 489 l 624 363 l 134 363 z "},"­":{"ha":606,"x_min":134,"x_max":650,"o":"m 134 363 l 160 489 l 650 489 l 624 363 l 134 363 z "},".":{"ha":306,"x_min":53,"x_max":286,"o":"m 53 -16 l 96 184 l 286 184 l 243 -16 l 53 -16 z "},"/":{"ha":589,"x_min":9,"x_max":786,"o":"m 132 -123 l 9 -74 l 663 1096 l 786 1044 l 132 -123 z "},":":{"ha":306,"x_min":53,"x_max":389,"o":"m 53 -16 l 96 184 l 286 184 l 243 -16 l 53 -16 m 157 471 l 199 671 l 389 671 l 346 471 l 157 471 z "},";":{"ha":306,"x_min":65,"x_max":389,"o":"m 157 471 l 199 671 l 389 671 l 346 471 l 157 471 m 160 -184 l 65 -184 l 94 184 l 288 184 l 160 -184 z "},";":{"ha":306,"x_min":65,"x_max":389,"o":"m 157 471 l 199 671 l 389 671 l 346 471 l 157 471 m 160 -184 l 65 -184 l 94 184 l 288 184 l 160 -184 z "},"<":{"ha":581,"x_min":135,"x_max":667,"o":"m 482 92 l 135 368 l 160 482 l 625 760 l 667 653 l 286 425 l 571 199 l 482 92 z "},"=":{"ha":606,"x_min":111,"x_max":675,"o":"m 111 253 l 138 379 l 627 379 l 600 253 l 111 253 m 157 471 l 184 597 l 675 597 l 646 471 l 157 471 z "},">":{"ha":581,"x_min":94,"x_max":625,"o":"m 138 92 l 94 199 l 473 425 l 191 653 l 279 760 l 625 482 l 600 368 l 138 92 z "},"?":{"ha":652,"x_min":111,"x_max":769,"o":"m 111 -16 l 154 184 l 345 184 l 301 -16 l 111 -16 m 749 729 q 636 549 726 624 q 449 471 548 471 l 370 471 l 315 277 l 221 277 l 271 623 l 481 623 q 515 636 499 623 q 534 668 530 649 q 528 701 538 688 q 500 714 519 714 l 208 714 l 267 986 l 558 986 q 648 967 610 986 q 714 909 686 948 q 749 729 769 836 z "},"@":{"ha":1067,"x_min":35,"x_max":1175,"o":"m 733 374 q 726 422 740 403 q 684 441 712 441 l 596 441 q 565 435 581 441 q 537 418 550 429 q 514 394 524 408 q 500 364 504 380 q 478 295 486 319 q 471 267 471 270 q 478 217 465 237 q 519 197 492 197 l 607 197 q 637 203 622 197 q 666 220 653 210 q 690 245 680 231 q 704 275 700 259 q 733 374 731 364 m 1061 243 q 1022 144 1048 189 q 950 61 995 99 q 859 3 905 22 q 761 -16 812 -16 l 618 -16 l 625 7 q 513 -16 585 -16 l 485 -16 l 461 -16 q 397 -2 425 -16 q 349 36 370 11 q 325 167 311 90 q 327 173 325 168 q 330 184 328 178 l 330 183 l 412 457 q 449 532 425 497 q 507 596 473 568 q 656 653 581 653 l 743 653 q 854 600 816 653 l 854 602 q 880 544 874 576 q 878 472 886 511 q 875 465 876 470 q 871 453 874 459 l 871 454 l 766 100 l 819 100 q 862 108 841 100 q 899 130 882 116 q 928 164 916 144 q 945 207 940 184 l 1064 765 q 1064 806 1068 787 q 1049 841 1060 826 q 1022 864 1038 855 q 985 872 1006 872 l 453 872 q 413 864 433 872 q 376 841 393 855 q 346 806 359 826 q 329 765 334 787 l 160 -36 q 158 -77 155 -58 q 173 -112 162 -97 q 200 -135 183 -126 q 237 -143 216 -143 l 863 -143 l 839 -258 l 248 -258 q 90 -180 146 -258 q 57 0 35 -107 l 212 729 q 251 827 224 783 q 322 909 277 872 q 513 986 411 986 l 975 986 q 1129 909 1076 986 q 1166 827 1158 872 q 1164 729 1175 783 l 1061 243 z "},"A":{"ha":721,"x_min":53,"x_max":829,"o":"m 281 379 l 600 379 l 648 607 q 650 650 654 630 q 636 684 646 669 q 608 706 625 698 q 570 714 591 714 l 454 714 q 413 706 433 714 q 376 683 393 697 q 346 648 359 668 q 329 607 334 629 l 281 379 m 517 -16 l 568 228 l 249 228 l 197 -16 l 53 -16 l 212 729 q 251 827 224 783 q 323 909 279 872 q 513 986 412 986 l 628 986 q 718 968 679 986 q 783 911 756 949 q 820 828 812 872 q 818 729 829 784 l 659 -16 l 517 -16 z "},"B":{"ha":721,"x_min":53,"x_max":840,"o":"m 532 335 q 533 364 536 350 q 523 388 530 378 q 503 405 515 399 q 476 411 491 411 l 288 411 l 256 257 l 443 257 q 472 263 458 257 q 499 280 487 269 q 520 305 511 291 q 532 335 528 319 m 597 637 q 598 667 601 653 q 587 691 595 681 q 567 708 579 702 q 541 714 555 714 l 353 714 l 319 561 l 509 561 q 537 567 523 561 q 564 584 551 574 q 585 609 576 595 q 597 637 593 623 m 714 243 q 675 145 703 190 q 603 62 648 100 q 414 -16 515 -16 l 53 -16 l 267 986 l 628 986 q 782 909 728 986 q 818 729 840 836 l 814 717 q 786 637 806 675 q 734 567 767 600 q 685 519 711 539 q 628 485 659 498 q 708 387 686 451 q 714 243 730 323 z "},"C":{"ha":721,"x_min":97,"x_max":872,"o":"m 298 -16 q 143 62 199 -16 q 106 145 115 100 q 110 243 97 190 l 212 729 q 251 827 224 783 q 323 909 279 872 q 513 986 412 986 l 872 986 l 814 714 l 454 714 q 413 706 433 714 q 376 683 393 697 q 346 648 359 668 q 329 607 334 629 l 278 364 q 278 323 274 342 q 292 289 281 303 q 319 266 303 274 q 357 257 336 257 l 717 257 l 659 -16 l 298 -16 z "},"D":{"ha":721,"x_min":53,"x_max":840,"o":"m 648 607 q 649 648 653 629 q 635 683 646 668 q 607 706 624 697 q 570 714 591 714 l 353 714 l 256 257 l 472 257 q 514 266 493 257 q 551 288 534 274 q 581 322 568 302 q 597 364 593 342 l 648 607 m 714 243 q 676 144 703 189 q 604 61 649 99 q 414 -16 517 -16 l 53 -16 l 267 986 l 628 986 q 782 909 728 986 q 818 729 840 836 l 714 243 z "},"E":{"ha":606,"x_min":97,"x_max":757,"o":"m 298 -16 q 142 61 197 -16 q 105 144 113 99 q 110 243 97 189 l 267 986 l 757 986 l 699 714 l 353 714 l 319 561 l 550 561 l 519 411 l 288 411 l 278 364 q 277 322 273 342 q 291 288 280 302 q 318 266 301 274 q 357 257 335 257 l 602 257 l 543 -16 l 298 -16 z "},"F":{"ha":576,"x_min":53,"x_max":757,"o":"m 454 714 q 412 706 433 714 q 375 684 392 698 q 346 650 358 669 q 329 607 334 630 l 319 561 l 550 561 l 519 411 l 288 411 l 197 -16 l 53 -16 l 212 729 q 251 828 224 784 q 322 911 277 872 q 414 968 367 949 q 513 986 461 986 l 757 986 l 699 714 l 454 714 z "},"G":{"ha":721,"x_min":97,"x_max":872,"o":"m 454 714 q 413 706 433 714 q 376 683 393 697 q 346 648 359 668 q 329 607 334 629 l 278 364 q 278 323 274 342 q 292 289 281 303 q 319 266 303 274 q 357 257 336 257 l 562 257 l 596 411 l 433 411 l 465 561 l 771 561 l 647 -16 l 298 -16 q 143 62 199 -16 q 106 145 115 100 q 110 243 97 190 l 212 729 q 251 827 224 783 q 323 909 279 872 q 513 986 412 986 l 872 986 l 814 714 l 454 714 z "},"H":{"ha":721,"x_min":53,"x_max":872,"o":"m 517 -16 l 595 350 l 275 350 l 197 -16 l 53 -16 l 267 986 l 411 986 l 334 623 l 653 623 l 730 986 l 872 986 l 659 -16 l 517 -16 z "},"I":{"ha":374,"x_min":53,"x_max":526,"o":"m 53 -16 l 111 257 l 170 257 l 267 714 l 208 714 l 267 986 l 526 986 l 468 714 l 411 714 l 314 257 l 371 257 l 313 -16 l 53 -16 z "},"J":{"ha":490,"x_min":53,"x_max":642,"o":"m 484 243 q 374 61 460 136 q 183 -16 285 -16 l 53 -16 l 111 257 l 241 257 q 283 266 262 257 q 321 288 304 274 q 350 322 338 302 q 367 364 362 342 l 441 714 l 208 714 l 267 986 l 642 986 l 484 243 z "},"K":{"ha":721,"x_min":53,"x_max":872,"o":"m 517 -16 l 572 243 q 573 286 577 266 q 558 319 569 305 q 530 342 547 334 q 492 350 513 350 l 275 350 l 197 -16 l 53 -16 l 267 986 l 411 986 l 334 623 l 550 623 q 592 631 571 623 q 629 653 612 639 q 658 687 646 667 q 675 729 670 706 l 730 986 l 872 986 l 811 704 q 790 639 804 671 q 755 579 776 607 q 709 527 735 551 q 653 486 683 503 q 692 445 676 469 q 716 393 707 421 q 725 332 724 364 q 720 267 726 300 l 659 -16 l 517 -16 z "},"L":{"ha":606,"x_min":97,"x_max":602,"o":"m 298 -16 q 142 61 197 -16 q 105 144 113 99 q 110 243 97 189 l 267 986 l 411 986 l 278 364 q 277 322 273 342 q 291 288 280 302 q 318 266 301 274 q 357 257 335 257 l 602 257 l 543 -16 l 298 -16 z "},"M":{"ha":1182,"x_min":53,"x_max":1291,"o":"m 977 -16 l 1109 607 q 1111 648 1114 629 q 1096 683 1107 668 q 1069 706 1085 697 q 1032 714 1053 714 l 917 714 q 874 706 895 714 q 837 684 854 698 q 808 650 821 669 q 791 607 796 630 l 659 -16 l 517 -16 l 648 607 q 650 650 654 630 q 636 684 646 669 q 608 706 625 698 q 570 714 591 714 l 454 714 q 413 706 433 714 q 376 683 393 697 q 346 648 359 668 q 329 607 334 629 l 197 -16 l 53 -16 l 212 729 q 251 827 224 783 q 323 909 279 872 q 513 986 412 986 l 582 986 q 648 976 617 986 q 703 948 678 966 q 745 903 727 930 q 771 844 762 877 q 822 903 793 877 q 883 948 850 930 q 950 976 916 966 q 1021 986 985 986 l 1090 986 q 1244 909 1191 986 q 1282 827 1273 872 q 1279 729 1291 783 l 1121 -16 l 977 -16 z "},"N":{"ha":721,"x_min":53,"x_max":829,"o":"m 517 -16 l 648 607 q 650 650 654 630 q 636 684 646 669 q 608 706 625 698 q 570 714 591 714 l 454 714 q 413 706 433 714 q 376 683 393 697 q 346 648 359 668 q 329 607 334 629 l 197 -16 l 53 -16 l 212 729 q 251 827 224 783 q 322 909 277 872 q 513 986 411 986 l 628 986 q 718 968 679 986 q 783 911 756 949 q 820 828 812 872 q 818 729 829 784 l 659 -16 l 517 -16 z "},"O":{"ha":721,"x_min":85,"x_max":840,"o":"m 648 607 q 649 648 653 629 q 635 683 646 668 q 607 706 624 697 q 570 714 591 714 l 454 714 q 413 706 433 714 q 376 683 393 697 q 346 648 359 668 q 329 607 334 629 l 278 364 q 278 323 274 342 q 292 289 281 303 q 319 266 303 274 q 357 257 336 257 l 472 257 q 514 266 493 257 q 551 288 534 274 q 581 322 568 302 q 597 364 593 342 l 648 607 m 714 243 q 676 144 703 189 q 604 61 649 99 q 414 -16 517 -16 l 298 -16 q 142 61 197 -16 q 110 243 85 138 l 212 729 q 251 827 224 783 q 322 909 277 872 q 513 986 411 986 l 628 986 q 782 909 728 986 q 818 729 840 836 l 714 243 z "},"P":{"ha":721,"x_min":53,"x_max":840,"o":"m 597 637 q 598 667 601 653 q 587 691 595 681 q 567 708 579 702 q 541 714 555 714 l 353 714 l 319 561 l 509 561 q 537 567 523 561 q 564 584 551 574 q 585 609 576 595 q 597 637 593 623 m 804 668 q 766 571 793 615 q 693 488 738 526 q 505 411 606 411 l 288 411 l 197 -16 l 53 -16 l 267 986 l 628 986 q 782 909 728 986 q 818 729 840 836 l 804 668 z "},"Q":{"ha":721,"x_min":97,"x_max":840,"o":"m 648 607 q 649 648 653 629 q 635 683 646 668 q 607 706 624 697 q 570 714 591 714 l 454 714 q 413 706 433 714 q 376 683 393 697 q 346 648 359 668 q 329 607 334 629 l 278 364 q 278 323 274 342 q 292 289 281 303 q 319 266 303 274 q 357 257 336 257 l 472 257 q 514 266 493 257 q 551 288 534 274 q 581 322 568 302 q 597 364 593 342 l 648 607 m 453 -379 q 363 -361 401 -379 q 296 -304 324 -343 q 259 -221 267 -266 q 264 -122 252 -176 l 286 -16 q 204 6 240 -12 q 143 61 169 25 q 106 144 115 99 q 110 243 97 190 l 212 729 q 251 827 224 783 q 323 909 279 872 q 513 986 412 986 l 628 986 q 782 909 728 986 q 818 729 840 836 l 714 243 q 676 144 703 189 q 604 61 649 99 q 519 6 562 25 q 428 -16 476 -12 q 432 -52 427 -35 q 448 -81 437 -68 q 474 -100 458 -93 q 510 -107 490 -107 l 639 -107 l 582 -379 l 453 -379 z "},"R":{"ha":721,"x_min":53,"x_max":840,"o":"m 597 637 q 598 667 601 653 q 587 691 595 681 q 567 708 579 702 q 541 714 555 714 l 353 714 l 319 561 l 509 561 q 537 567 523 561 q 564 584 551 574 q 585 609 576 595 q 597 637 593 623 m 517 -16 l 575 256 q 577 315 581 287 q 562 364 574 342 q 476 411 535 411 l 288 411 l 197 -16 l 53 -16 l 267 986 l 628 986 q 782 909 728 986 q 818 729 840 836 q 792 652 809 689 q 750 584 774 616 q 695 528 726 553 q 628 486 665 503 q 711 394 688 454 q 717 256 734 335 l 659 -16 l 517 -16 z "},"S":{"ha":721,"x_min":53,"x_max":872,"o":"m 714 243 q 675 145 703 190 q 603 62 648 100 q 414 -16 515 -16 l 53 -16 l 111 257 l 443 257 q 472 263 458 257 q 499 280 487 269 q 520 305 511 291 q 532 335 528 319 q 533 364 536 350 q 523 388 530 378 q 503 405 515 399 q 476 411 491 411 l 390 411 q 233 488 289 411 q 196 571 205 526 q 199 668 188 615 l 212 729 q 251 827 224 783 q 323 909 279 872 q 513 986 412 986 l 872 986 l 814 714 l 484 714 q 453 708 468 714 q 427 691 439 702 q 406 667 415 681 q 395 637 397 653 q 393 609 391 623 q 404 584 396 595 q 424 567 412 574 q 452 561 436 561 l 538 561 q 693 485 638 561 q 726 304 749 407 l 714 243 z "},"T":{"ha":663,"x_min":180,"x_max":844,"o":"m 555 714 l 400 -16 l 257 -16 l 412 714 l 180 714 l 239 986 l 844 986 l 786 714 l 555 714 z "},"U":{"ha":721,"x_min":85,"x_max":872,"o":"m 714 243 q 676 144 703 189 q 604 61 649 99 q 414 -16 517 -16 l 298 -16 q 142 61 197 -16 q 110 243 85 138 l 267 986 l 411 986 l 278 364 q 278 323 274 342 q 292 289 281 303 q 319 266 303 274 q 357 257 336 257 l 472 257 q 514 266 493 257 q 551 288 534 274 q 581 322 568 302 q 597 364 593 342 l 730 986 l 872 986 l 714 243 z "},"V":{"ha":721,"x_min":53,"x_max":872,"o":"m 714 243 q 676 144 703 189 q 604 61 649 99 q 414 -16 517 -16 l 53 -16 l 267 986 l 411 986 l 256 257 l 472 257 q 514 266 493 257 q 551 288 534 274 q 581 322 568 302 q 597 364 593 342 l 730 986 l 872 986 l 714 243 z "},"W":{"ha":1182,"x_min":97,"x_max":1335,"o":"m 1177 243 q 1064 62 1154 138 q 876 -16 976 -16 l 807 -16 q 741 -6 772 -16 q 685 22 710 4 q 643 67 661 41 q 616 126 625 94 q 566 67 595 94 q 506 22 538 41 q 438 -6 473 4 q 368 -16 404 -16 l 298 -16 q 143 62 199 -16 q 106 145 115 100 q 110 243 97 190 l 267 986 l 411 986 l 278 364 q 278 323 274 342 q 292 289 281 303 q 319 266 303 274 q 357 257 336 257 l 472 257 q 514 266 493 257 q 551 288 534 274 q 581 322 568 302 q 597 364 593 342 l 730 986 l 872 986 l 741 364 q 739 322 735 342 q 753 288 742 302 q 781 266 764 274 q 819 257 798 257 l 935 257 q 975 266 955 257 q 1012 289 995 274 q 1041 323 1029 303 q 1059 364 1054 342 l 1190 986 l 1335 986 l 1177 243 z "},"X":{"ha":721,"x_min":53,"x_max":872,"o":"m 576 -16 q 503 -3 536 -16 q 443 33 471 10 q 408 77 422 53 q 387 129 395 100 q 345 77 369 100 q 292 33 320 53 q 216 -3 254 10 q 138 -16 178 -16 l 53 -16 l 111 257 l 241 257 q 282 266 262 257 q 320 289 302 274 q 350 323 337 303 q 367 364 362 342 l 418 607 q 418 648 422 629 q 404 683 414 668 q 376 706 393 697 q 339 714 359 714 l 208 714 l 267 986 l 351 986 q 484 937 431 986 q 539 843 524 901 q 583 895 559 871 q 636 937 607 919 q 790 986 709 986 l 872 986 l 814 714 l 685 714 q 644 706 664 714 q 606 683 623 697 q 577 648 589 668 q 559 607 564 629 l 510 364 q 509 323 505 342 q 523 289 513 303 q 550 266 534 274 q 587 257 566 257 l 717 257 l 659 -16 l 576 -16 z "},"Y":{"ha":721,"x_min":159,"x_max":872,"o":"m 777 534 q 738 435 765 480 q 665 353 710 391 q 581 298 623 317 q 490 277 538 279 l 428 -16 l 286 -16 l 347 277 q 266 298 301 279 q 205 353 231 317 q 168 436 177 391 q 171 534 159 481 l 267 986 l 411 986 l 340 656 q 340 614 336 634 q 354 580 344 595 q 382 557 365 566 q 419 549 399 549 l 534 549 q 576 557 555 549 q 613 580 596 566 q 642 614 630 594 q 660 656 654 633 l 730 986 l 872 986 l 777 534 z "},"Z":{"ha":721,"x_min":53,"x_max":872,"o":"m 53 -16 l 111 249 l 597 714 l 208 714 l 267 986 l 872 986 l 815 724 l 329 257 l 717 257 l 659 -16 l 53 -16 z "},"[":{"ha":432,"x_min":28,"x_max":551,"o":"m 28 -136 l 293 1108 l 551 1108 l 493 836 l 378 836 l 229 136 l 345 136 l 286 -136 l 28 -136 z "},"\\":{"ha":589,"x_min":248,"x_max":549,"o":"m 403 -123 l 248 1044 l 393 1096 l 549 -74 l 403 -123 z "},"]":{"ha":432,"x_min":86,"x_max":610,"o":"m 86 -136 l 144 136 l 260 136 l 408 836 l 293 836 l 351 1108 l 610 1108 l 345 -136 l 86 -136 z "},"^":{"ha":612,"x_min":164,"x_max":669,"o":"m 549 469 l 478 806 l 262 469 l 164 521 l 461 986 l 571 986 l 669 521 l 549 469 z "},"_":{"ha":576,"x_min":0,"x_max":576,"o":"m 0 -16 l 0 136 l 576 136 l 576 -16 l 0 -16 z "},"`":{"ha":306,"x_min":258,"x_max":422,"o":"m 323 787 l 258 986 l 383 986 l 422 787 l 323 787 z "},"a":{"ha":721,"x_min":97,"x_max":814,"o":"m 624 486 q 625 529 629 509 q 610 562 621 548 q 583 585 600 576 q 545 593 566 593 l 429 593 q 388 584 408 593 q 350 561 368 576 q 321 527 333 547 q 304 486 309 508 l 278 364 q 278 323 274 342 q 292 289 281 303 q 319 266 303 274 q 357 257 336 257 l 472 257 q 513 266 493 257 q 551 289 534 274 q 581 323 568 303 q 597 364 593 342 l 624 486 m 517 -16 l 525 22 q 513 15 519 18 q 500 7 507 11 q 457 -9 479 -3 q 414 -16 435 -16 l 298 -16 q 143 62 199 -16 q 106 145 115 100 q 110 243 97 190 l 186 607 q 225 705 197 660 q 297 789 252 750 q 486 865 386 865 l 602 865 q 758 790 704 865 q 791 607 814 714 l 659 -16 l 517 -16 z "},"b":{"ha":721,"x_min":97,"x_max":803,"o":"m 624 486 q 624 527 629 508 q 609 561 620 547 q 582 584 598 576 q 545 593 565 593 l 429 593 q 388 584 408 593 q 350 561 368 576 q 321 527 333 547 q 304 486 309 508 l 278 364 q 277 322 273 342 q 291 288 280 302 q 318 266 301 274 q 357 257 335 257 l 472 257 q 513 266 493 257 q 551 289 534 274 q 581 323 568 303 q 597 364 593 342 l 624 486 m 714 243 q 675 145 703 190 q 603 62 648 100 q 414 -16 515 -16 l 298 -16 q 142 61 197 -16 q 105 144 113 99 q 110 243 97 189 l 279 1047 l 422 1047 l 376 828 q 389 836 382 832 q 401 843 395 840 q 443 860 421 854 q 486 865 465 865 l 602 865 q 691 846 652 865 q 757 789 730 827 q 794 705 785 750 q 791 607 803 660 l 714 243 z "},"c":{"ha":721,"x_min":97,"x_max":846,"o":"m 298 -16 q 143 62 199 -16 q 106 145 115 100 q 110 243 97 190 l 186 607 q 225 705 197 660 q 297 789 252 750 q 486 865 386 865 l 846 865 l 789 593 l 429 593 q 388 584 408 593 q 350 561 368 576 q 321 527 333 547 q 304 486 309 508 l 278 364 q 278 323 274 342 q 292 289 281 303 q 319 266 303 274 q 357 257 336 257 l 717 257 l 659 -16 l 298 -16 z "},"d":{"ha":721,"x_min":97,"x_max":885,"o":"m 624 486 q 624 527 629 508 q 609 561 620 547 q 582 584 598 576 q 545 593 565 593 l 429 593 q 388 584 408 593 q 350 561 368 576 q 321 527 333 547 q 304 486 309 508 l 278 364 q 278 323 274 342 q 292 289 281 303 q 319 266 303 274 q 357 257 336 257 l 472 257 q 514 266 493 257 q 551 288 534 274 q 581 322 568 302 q 597 364 593 342 l 624 486 m 714 243 q 676 144 703 189 q 604 61 649 99 q 414 -16 517 -16 l 298 -16 q 143 62 199 -16 q 106 145 115 100 q 110 243 97 190 l 186 607 q 225 705 197 660 q 297 789 252 750 q 486 865 386 865 l 602 865 q 677 843 646 865 q 688 836 683 840 q 696 829 692 833 l 743 1047 l 885 1047 l 714 243 z "},"e":{"ha":721,"x_min":97,"x_max":846,"o":"m 298 -16 q 143 62 199 -16 q 106 145 115 100 q 110 243 97 190 l 186 607 q 225 705 197 660 q 297 789 252 750 q 486 865 386 865 l 846 865 l 789 593 l 429 593 q 391 586 410 593 q 355 566 372 578 q 327 536 339 553 q 307 500 314 519 l 654 500 l 621 350 l 275 350 q 279 313 273 330 q 295 284 284 296 q 322 264 306 271 q 357 257 338 257 l 717 257 l 659 -16 l 298 -16 z "},"f":{"ha":576,"x_min":53,"x_max":770,"o":"m 468 775 q 426 767 446 775 q 388 745 405 759 q 360 711 372 730 q 343 668 348 691 l 319 561 l 550 561 l 519 411 l 288 411 l 197 -16 l 53 -16 l 225 790 q 264 889 237 844 q 335 972 291 934 q 427 1029 380 1011 q 525 1047 474 1047 l 770 1047 l 713 775 l 468 775 z "},"g":{"ha":721,"x_min":97,"x_max":814,"o":"m 624 486 q 624 527 629 508 q 609 561 620 547 q 582 584 598 576 q 545 593 565 593 l 429 593 q 388 584 408 593 q 350 561 368 576 q 321 527 333 547 q 304 486 309 508 l 278 364 q 278 323 274 342 q 292 289 281 303 q 319 266 303 274 q 357 257 336 257 l 472 257 q 514 266 493 257 q 551 288 534 274 q 581 322 568 302 q 597 364 593 342 l 624 486 m 636 -122 q 598 -221 625 -176 q 526 -304 571 -266 q 435 -361 482 -343 q 338 -379 389 -379 l 208 -379 l 267 -107 l 395 -107 q 436 -99 416 -107 q 474 -77 457 -91 q 503 -43 491 -62 q 519 0 515 -23 l 525 22 q 513 15 519 18 q 500 7 507 11 q 457 -9 479 -3 q 414 -16 435 -16 l 298 -16 q 143 62 199 -16 q 106 145 115 100 q 110 243 97 190 l 186 607 q 225 705 197 660 q 297 789 252 750 q 486 865 386 865 l 602 865 q 758 790 704 865 q 791 607 814 714 l 636 -122 z "},"h":{"ha":721,"x_min":53,"x_max":803,"o":"m 517 -16 l 624 486 q 624 527 629 508 q 609 561 620 547 q 582 584 598 576 q 545 593 565 593 l 429 593 q 388 584 408 593 q 350 561 368 576 q 321 527 333 547 q 304 486 309 508 l 197 -16 l 53 -16 l 279 1047 l 422 1047 l 376 831 q 389 838 382 834 q 401 844 395 841 l 401 843 q 443 860 421 854 q 486 865 465 865 l 602 865 q 691 846 652 865 q 757 789 730 827 q 794 705 785 750 q 791 607 803 660 l 659 -16 l 517 -16 z "},"i":{"ha":258,"x_min":53,"x_max":383,"o":"m 53 -16 l 240 865 l 383 865 l 197 -16 l 53 -16 z "},"j":{"ha":490,"x_min":-24,"x_max":615,"o":"m 406 -122 q 296 -304 382 -228 q 204 -361 251 -343 q 107 -379 158 -379 l -24 -379 l 33 -107 l 164 -107 q 206 -99 185 -107 q 243 -77 227 -91 q 272 -43 260 -62 q 289 0 284 -23 l 415 593 l 183 593 l 240 865 l 615 865 l 406 -122 z "},"k":{"ha":721,"x_min":53,"x_max":846,"o":"m 517 -16 l 558 182 q 560 224 564 205 q 546 258 557 244 q 519 281 536 273 q 481 289 502 289 l 262 289 l 197 -16 l 53 -16 l 279 1047 l 422 1047 l 319 561 l 538 561 q 579 569 559 561 q 616 591 600 577 q 645 625 633 606 q 663 668 657 645 l 704 865 l 846 865 l 800 644 q 778 578 793 610 q 742 518 763 547 q 695 466 722 490 q 639 425 669 442 q 678 384 662 408 q 702 332 694 360 q 712 272 711 304 q 705 207 713 240 l 659 -16 l 517 -16 z "},"l":{"ha":345,"x_min":97,"x_max":422,"o":"m 298 -16 q 142 61 197 -16 q 105 144 113 99 q 110 243 97 189 l 279 1047 l 422 1047 l 278 364 q 278 322 273 342 q 295 288 283 302 q 327 266 308 274 q 371 257 347 257 l 315 0 l 298 -16 z "},"m":{"ha":1182,"x_min":53,"x_max":1264,"o":"m 977 -16 l 1083 486 q 1084 527 1088 508 q 1070 561 1080 547 q 1043 584 1059 576 q 1006 593 1027 593 l 890 593 q 848 585 869 593 q 811 562 828 576 q 782 529 794 548 q 765 486 770 509 l 659 -16 l 517 -16 l 624 486 q 625 529 629 509 q 610 562 621 548 q 583 585 600 576 q 545 593 566 593 l 429 593 q 388 584 408 593 q 350 561 368 576 q 321 527 333 547 q 304 486 309 508 l 197 -16 l 53 -16 l 186 607 q 225 705 197 660 q 297 789 252 750 q 486 865 386 865 l 555 865 q 622 856 591 865 q 677 827 652 846 q 718 783 701 809 q 743 724 735 756 q 795 783 766 756 q 856 827 823 809 q 923 856 888 846 q 994 865 958 865 l 1064 865 q 1219 789 1164 865 q 1256 705 1248 750 q 1253 607 1264 660 l 1121 -16 l 977 -16 z "},"n":{"ha":721,"x_min":53,"x_max":814,"o":"m 517 -16 l 624 486 q 625 529 629 509 q 610 562 621 548 q 583 585 600 576 q 545 593 566 593 l 429 593 q 388 584 408 593 q 350 561 368 576 q 321 527 333 547 q 304 486 309 508 l 197 -16 l 53 -16 l 186 607 q 296 789 209 712 q 486 865 385 865 l 602 865 q 758 790 704 865 q 791 607 814 714 l 659 -16 l 517 -16 z "},"o":{"ha":721,"x_min":85,"x_max":803,"o":"m 624 486 q 624 527 629 508 q 609 561 620 547 q 582 584 598 576 q 545 593 565 593 l 429 593 q 388 584 408 593 q 350 561 368 576 q 321 527 333 547 q 304 486 309 508 l 278 364 q 278 323 274 342 q 292 289 281 303 q 319 266 303 274 q 357 257 336 257 l 472 257 q 514 266 493 257 q 551 288 534 274 q 581 322 568 302 q 597 364 593 342 l 624 486 m 714 243 q 676 144 703 189 q 604 61 649 99 q 414 -16 517 -16 l 298 -16 q 142 61 197 -16 q 110 243 85 138 l 186 607 q 296 789 209 712 q 486 865 385 865 l 602 865 q 691 846 652 865 q 757 789 730 827 q 794 705 785 750 q 791 607 803 660 l 714 243 z "},"p":{"ha":721,"x_min":3,"x_max":803,"o":"m 624 486 q 624 527 629 508 q 609 561 620 547 q 582 584 598 576 q 545 593 565 593 l 429 593 q 387 585 408 593 q 350 562 366 576 q 321 529 333 548 q 304 486 309 509 l 278 364 q 278 323 274 342 q 292 289 281 303 q 319 266 303 274 q 357 257 336 257 l 472 257 q 513 266 493 257 q 551 289 534 274 q 581 323 568 303 q 597 364 593 342 l 624 486 m 714 243 q 675 145 703 190 q 603 62 648 100 q 414 -16 515 -16 l 298 -16 q 258 -9 277 -16 q 222 7 239 -3 q 213 14 218 10 q 205 22 209 17 l 146 -258 l 3 -258 l 186 607 q 296 790 209 715 q 486 865 385 865 l 602 865 q 691 846 652 865 q 757 789 730 827 q 794 705 785 750 q 791 607 803 660 l 714 243 z "},"q":{"ha":721,"x_min":97,"x_max":814,"o":"m 624 486 q 625 529 629 509 q 610 562 621 548 q 583 585 600 576 q 545 593 566 593 l 429 593 q 388 584 408 593 q 350 561 368 576 q 321 527 333 547 q 304 486 309 508 l 278 364 q 278 323 274 342 q 292 289 281 303 q 319 266 303 274 q 357 257 336 257 l 472 257 q 513 266 493 257 q 551 289 534 274 q 581 323 568 303 q 597 364 593 342 l 624 486 m 465 -258 l 525 22 q 513 15 519 18 q 500 7 507 11 q 457 -9 479 -3 q 414 -16 435 -16 l 298 -16 q 143 62 199 -16 q 106 145 115 100 q 110 243 97 190 l 186 607 q 225 705 197 660 q 297 789 252 750 q 486 865 386 865 l 602 865 q 758 790 704 865 q 791 607 814 714 l 607 -258 l 465 -258 z "},"r":{"ha":576,"x_min":53,"x_max":730,"o":"m 429 593 q 388 584 408 593 q 350 561 368 576 q 321 527 333 547 q 304 486 309 508 l 197 -16 l 53 -16 l 240 865 l 383 865 l 376 828 q 389 836 382 832 q 401 843 395 840 q 443 860 421 854 q 486 865 465 865 l 730 865 l 673 593 l 429 593 z "},"s":{"ha":721,"x_min":53,"x_max":846,"o":"m 714 243 q 675 145 703 190 q 603 62 648 100 q 414 -16 515 -16 l 53 -16 l 111 257 l 472 257 q 507 271 491 257 q 526 304 522 285 q 520 336 530 323 q 492 350 511 350 l 376 350 q 221 427 277 350 q 186 607 163 505 q 225 705 197 660 q 297 789 252 750 q 486 865 386 865 l 846 865 l 789 593 l 429 593 q 395 579 410 593 q 375 547 379 566 q 381 514 371 528 q 410 500 391 500 l 525 500 q 679 424 625 500 q 714 243 736 348 z "},"t":{"ha":576,"x_min":97,"x_max":615,"o":"m 298 -16 q 142 61 197 -16 q 105 144 113 99 q 110 243 97 189 l 267 986 l 411 986 l 383 865 l 615 865 l 583 714 l 353 714 l 278 364 q 277 322 273 342 q 291 288 280 302 q 318 266 301 274 q 357 257 335 257 l 602 257 l 543 -16 l 298 -16 z "},"u":{"ha":721,"x_min":85,"x_max":846,"o":"m 714 243 q 676 144 703 189 q 604 61 649 99 q 414 -16 517 -16 l 298 -16 q 142 61 197 -16 q 110 243 85 138 l 240 865 l 383 865 l 278 364 q 278 323 274 342 q 292 289 281 303 q 319 266 303 274 q 357 257 336 257 l 472 257 q 514 266 493 257 q 551 288 534 274 q 581 322 568 302 q 597 364 593 342 l 704 865 l 846 865 l 714 243 z "},"v":{"ha":721,"x_min":53,"x_max":846,"o":"m 714 243 q 676 144 703 189 q 604 61 649 99 q 414 -16 517 -16 l 53 -16 l 240 865 l 383 865 l 256 257 l 472 257 q 514 266 493 257 q 551 288 534 274 q 581 322 568 302 q 597 364 593 342 l 704 865 l 846 865 l 714 243 z "},"w":{"ha":1182,"x_min":97,"x_max":1307,"o":"m 1177 243 q 1064 62 1154 138 q 876 -16 976 -16 l 807 -16 q 741 -6 772 -16 q 685 22 710 4 q 643 67 661 41 q 616 126 625 94 q 566 67 595 94 q 506 22 538 41 q 438 -6 473 4 q 368 -16 404 -16 l 298 -16 q 143 62 199 -16 q 106 145 115 100 q 110 243 97 190 l 240 865 l 383 865 l 278 364 q 278 323 274 342 q 292 289 281 303 q 319 266 303 274 q 357 257 336 257 l 472 257 q 514 266 493 257 q 551 288 534 274 q 581 322 568 302 q 597 364 593 342 l 704 865 l 846 865 l 741 364 q 739 322 735 342 q 753 288 742 302 q 781 266 764 274 q 819 257 798 257 l 935 257 q 975 266 955 257 q 1012 289 995 274 q 1041 323 1029 303 q 1059 364 1054 342 l 1164 865 l 1307 865 l 1177 243 z "},"x":{"ha":721,"x_min":53,"x_max":846,"o":"m 576 -16 q 503 -3 536 -16 q 443 33 471 10 q 408 77 422 53 q 387 129 395 100 q 345 77 369 100 q 292 33 320 53 q 216 -3 254 10 q 138 -16 178 -16 l 53 -16 l 111 257 l 241 257 q 282 266 262 257 q 320 289 302 274 q 350 323 337 303 q 367 364 362 342 l 393 486 q 393 527 397 508 q 378 561 389 547 q 351 584 368 576 q 314 593 334 593 l 183 593 l 240 865 l 325 865 q 458 815 404 865 q 492 774 477 798 q 513 722 506 751 q 556 774 532 751 q 610 815 581 798 q 684 853 646 840 q 762 865 723 865 l 846 865 l 789 593 l 660 593 q 618 584 639 593 q 581 561 598 576 q 552 527 564 547 q 534 486 539 508 l 510 364 q 509 323 505 342 q 523 289 513 303 q 550 266 534 274 q 587 257 566 257 l 717 257 l 659 -16 l 576 -16 z "},"y":{"ha":721,"x_min":97,"x_max":846,"o":"m 636 -122 q 598 -221 625 -176 q 526 -304 571 -266 q 435 -361 482 -343 q 338 -379 389 -379 l 208 -379 l 267 -107 l 395 -107 q 436 -99 416 -107 q 474 -77 457 -91 q 503 -43 491 -62 q 519 0 515 -23 l 525 22 q 513 15 519 18 q 500 7 507 11 q 457 -9 479 -3 q 414 -16 435 -16 l 298 -16 q 143 62 199 -16 q 106 145 115 100 q 110 243 97 190 l 240 865 l 383 865 l 278 364 q 278 323 274 342 q 292 289 281 303 q 319 266 303 274 q 357 257 336 257 l 472 257 q 514 266 493 257 q 551 288 534 274 q 581 322 568 302 q 597 364 593 342 l 704 865 l 846 865 l 636 -122 z "},"z":{"ha":721,"x_min":53,"x_max":846,"o":"m 53 -16 l 111 249 l 530 593 l 183 593 l 240 865 l 846 865 l 790 602 l 368 257 l 717 257 l 659 -16 l 53 -16 z "},"{":{"ha":547,"x_min":144,"x_max":667,"o":"m 389 -136 q 233 -60 289 -136 q 196 24 205 -21 q 199 121 187 68 l 260 411 l 144 411 l 176 561 l 292 561 l 354 850 q 392 948 365 903 q 464 1032 420 994 q 667 1108 553 1108 l 608 836 q 562 828 585 836 q 521 805 540 819 q 489 770 502 790 q 471 729 475 751 l 368 243 q 368 202 363 221 q 386 168 373 182 q 418 145 398 153 q 461 136 437 136 l 406 -122 l 389 -136 z "},"|":{"ha":258,"x_min":28,"x_max":436,"o":"m 28 -136 l 293 1108 l 436 1108 l 171 -136 l 28 -136 z "},"}":{"ha":547,"x_min":86,"x_max":608,"o":"m 461 411 l 400 121 q 361 24 389 68 q 289 -60 334 -21 q 86 -136 200 -136 l 144 136 q 191 145 168 136 q 233 168 214 153 q 265 202 252 182 q 283 243 278 221 l 386 729 q 386 770 391 751 q 368 805 380 790 q 335 828 355 819 q 293 836 316 836 l 351 1108 q 450 1089 409 1108 q 519 1032 491 1071 q 555 850 576 956 l 493 561 l 608 561 l 578 411 l 461 411 z "},"~":{"ha":628,"x_min":131,"x_max":686,"o":"m 652 412 q 471 363 562 363 q 435 369 455 363 q 392 387 415 375 q 351 405 368 399 q 321 411 334 411 q 230 396 277 411 q 131 351 183 382 l 160 481 q 255 524 209 510 q 347 538 301 538 q 428 511 380 538 q 468 495 452 500 q 498 489 485 489 q 686 549 584 489 l 660 425 l 652 412 z "},"€":{"ha":721,"x_min":97,"x_max":872,"o":"m 298 -16 q 143 62 199 -16 q 106 145 115 100 q 110 243 97 190 l 212 729 q 251 827 224 783 q 323 909 279 872 q 513 986 412 986 l 872 986 l 814 714 l 454 714 q 416 707 435 714 q 381 687 397 700 q 353 658 365 675 q 334 623 340 642 l 679 623 l 656 509 l 309 509 l 298 464 l 646 464 l 621 350 l 275 350 q 279 313 273 330 q 295 284 284 296 q 322 264 306 271 q 357 257 338 257 l 717 257 l 659 -16 l 298 -16 z "},"‚":{"ha":306,"x_min":53,"x_max":286,"o":"m 74 -136 l 92 -58 l 160 -58 l 170 -16 l 53 -16 l 96 184 l 286 184 l 218 -136 l 74 -136 z "},"ƒ":{"ha":692,"x_min":-254,"x_max":886,"o":"m 807 775 l 564 775 q 481 744 517 775 q 428 663 446 713 q 418 633 426 657 q 396 561 410 608 l 627 561 l 585 411 l 354 411 l 231 -1 q 215 -51 224 -21 q 195 -122 206 -81 q 146 -224 177 -178 q 68 -307 115 -271 q -123 -379 -19 -379 l -254 -379 l -175 -107 l -47 -107 q -4 -99 -25 -107 q 35 -76 17 -91 q 66 -42 53 -62 q 87 1 80 -22 l 321 791 q 446 974 355 899 q 640 1047 539 1047 l 886 1047 l 807 775 z "},"„":{"ha":558,"x_min":53,"x_max":539,"o":"m 74 -136 l 92 -58 l 160 -58 l 170 -16 l 53 -16 l 96 184 l 286 184 l 218 -136 l 74 -136 m 328 -136 l 345 -58 l 414 -58 l 422 -16 l 307 -16 l 350 184 l 539 184 l 471 -136 l 328 -136 z "},"…":{"ha":860,"x_min":53,"x_max":840,"o":"m 330 -16 l 374 184 l 562 184 l 519 -16 l 330 -16 m 53 -16 l 96 184 l 286 184 l 243 -16 l 53 -16 m 608 -16 l 652 184 l 840 184 l 798 -16 l 608 -16 z "},"†":{"ha":606,"x_min":176,"x_max":704,"o":"m 500 593 l 319 -258 l 176 -258 l 357 593 l 183 593 l 215 743 l 389 743 l 441 986 l 585 986 l 532 743 l 704 743 l 673 593 l 500 593 z "},"‡":{"ha":606,"x_min":106,"x_max":704,"o":"m 422 228 l 319 -258 l 176 -258 l 279 228 l 106 228 l 138 379 l 311 379 l 357 593 l 183 593 l 215 743 l 389 743 l 441 986 l 585 986 l 532 743 l 704 743 l 673 593 l 500 593 l 454 379 l 627 379 l 596 228 l 422 228 z "},"ˆ":{"ha":421,"x_min":216,"x_max":539,"o":"m 440 787 l 397 879 l 315 787 l 216 787 l 366 986 l 475 986 l 539 787 l 440 787 z "},"‰":{"ha":1609,"x_min":158,"x_max":1665,"o":"m 1515 364 q 1515 394 1518 380 q 1505 418 1512 408 q 1485 435 1497 429 q 1458 441 1473 441 l 1372 441 q 1342 435 1357 441 q 1316 418 1328 429 q 1295 394 1303 408 q 1283 364 1286 380 l 1264 273 q 1272 219 1257 240 q 1320 197 1288 197 l 1406 197 q 1435 203 1420 197 q 1462 220 1450 210 q 1483 244 1474 230 q 1496 273 1493 258 l 1515 364 m 551 699 q 542 753 557 730 q 497 775 527 775 l 410 775 q 381 769 395 775 q 354 752 366 763 q 333 728 342 742 q 321 699 323 714 l 301 607 q 301 578 298 592 q 311 554 304 564 q 331 537 319 543 q 357 530 342 530 l 444 530 q 474 536 460 530 q 500 552 489 542 q 520 577 512 563 q 532 607 528 591 l 551 699 m 1169 364 q 1170 394 1173 380 q 1159 418 1166 408 q 1139 435 1151 429 q 1112 441 1127 441 l 1025 441 q 996 435 1010 441 q 970 418 982 429 q 949 394 958 408 q 937 364 941 380 l 918 273 q 917 244 914 258 q 927 220 920 230 q 946 203 935 210 q 974 197 958 197 l 1060 197 q 1090 203 1076 197 q 1117 219 1105 209 q 1138 243 1129 229 q 1150 273 1146 257 l 1169 364 m 557 -16 l 771 986 l 914 986 l 700 -16 l 557 -16 m 628 517 q 598 440 619 475 q 543 376 576 406 q 400 319 477 319 l 313 319 q 193 378 237 319 q 165 441 172 407 q 167 517 158 476 l 225 790 q 256 864 235 830 q 310 928 277 899 q 454 986 378 986 l 542 986 q 660 928 618 986 q 686 790 705 869 l 628 517 m 1590 182 q 1506 43 1574 103 q 1361 -16 1438 -16 l 1321 -16 q 1270 -8 1294 -16 q 1225 14 1245 -1 q 1191 47 1205 28 q 1168 92 1176 67 q 1127 47 1150 67 q 1078 14 1104 28 q 1023 -8 1051 -1 q 968 -16 995 -16 l 928 -16 q 810 43 854 -16 q 783 182 767 101 l 842 456 q 926 595 858 536 q 997 638 961 624 q 1071 653 1032 653 l 1111 653 q 1162 645 1137 653 q 1207 623 1187 637 q 1242 589 1227 609 q 1264 545 1257 569 q 1305 589 1282 569 q 1354 623 1329 609 q 1408 645 1380 637 q 1463 653 1436 653 l 1503 653 q 1622 595 1580 653 q 1649 456 1665 537 l 1590 182 z "},"Š":{"ha":721,"x_min":53,"x_max":872,"o":"m 633 1031 l 525 1031 l 460 1229 l 558 1229 l 602 1139 l 685 1229 l 782 1229 l 633 1031 m 714 243 q 675 145 703 190 q 603 62 648 100 q 414 -16 515 -16 l 53 -16 l 111 257 l 443 257 q 472 263 458 257 q 499 280 487 269 q 520 305 511 291 q 532 335 528 319 q 533 364 536 350 q 523 388 530 378 q 503 405 515 399 q 476 411 491 411 l 390 411 q 233 488 289 411 q 196 571 205 526 q 199 668 188 615 l 212 729 q 251 827 224 783 q 323 909 279 872 q 513 986 412 986 l 872 986 l 814 714 l 484 714 q 453 708 468 714 q 427 691 439 702 q 406 667 415 681 q 395 637 397 653 q 393 609 391 623 q 404 584 396 595 q 424 567 412 574 q 452 561 436 561 l 538 561 q 693 485 638 561 q 726 304 749 407 l 714 243 z "},"‹":{"ha":484,"x_min":149,"x_max":568,"o":"m 412 218 l 149 429 l 172 543 l 526 753 l 568 646 l 298 486 l 500 325 l 412 218 z "},"Œ":{"ha":1008,"x_min":85,"x_max":1161,"o":"m 648 607 q 649 648 653 629 q 635 683 646 668 q 607 706 624 697 q 570 714 591 714 l 454 714 q 413 706 433 714 q 376 683 393 697 q 346 648 359 668 q 329 607 334 629 l 278 364 q 278 323 274 342 q 292 289 281 303 q 319 266 303 274 q 357 257 336 257 l 472 257 q 514 266 493 257 q 551 288 534 274 q 581 322 568 302 q 597 364 593 342 l 648 607 m 807 -16 q 685 24 732 -16 q 623 132 638 64 q 572 71 600 98 q 510 24 543 43 q 441 -5 477 5 q 368 -16 405 -16 l 298 -16 q 142 61 197 -16 q 110 243 85 138 l 212 729 q 251 827 224 783 q 322 909 277 872 q 513 986 411 986 l 582 986 q 657 973 624 986 q 718 935 691 960 l 730 986 l 1161 986 l 1103 714 l 814 714 l 782 561 l 956 561 l 924 411 l 750 411 l 741 364 q 739 322 735 342 q 753 288 742 302 q 781 266 764 274 q 819 257 798 257 l 1006 257 l 947 -16 l 807 -16 z "},"Ž":{"ha":721,"x_min":53,"x_max":872,"o":"m 633 1031 l 525 1031 l 460 1229 l 558 1229 l 602 1139 l 685 1229 l 782 1229 l 633 1031 m 53 -16 l 111 249 l 597 714 l 208 714 l 267 986 l 872 986 l 815 724 l 329 257 l 717 257 l 659 -16 l 53 -16 z "},"‘":{"ha":306,"x_min":211,"x_max":443,"o":"m 211 726 l 279 1047 l 422 1047 l 407 970 l 338 970 l 328 926 l 443 926 l 401 726 l 211 726 z "},"’":{"ha":306,"x_min":237,"x_max":469,"o":"m 257 726 l 275 804 l 345 804 l 353 848 l 237 848 l 279 1047 l 469 1047 l 401 726 l 257 726 z "},"“":{"ha":558,"x_min":211,"x_max":697,"o":"m 211 726 l 279 1047 l 422 1047 l 407 970 l 338 970 l 328 926 l 443 926 l 401 726 l 211 726 m 465 726 l 533 1047 l 676 1047 l 661 970 l 591 970 l 582 926 l 697 926 l 656 726 l 465 726 z "},"”":{"ha":558,"x_min":237,"x_max":724,"o":"m 257 726 l 275 804 l 345 804 l 353 848 l 237 848 l 279 1047 l 469 1047 l 401 726 l 257 726 m 511 726 l 529 804 l 597 804 l 607 848 l 490 848 l 533 1047 l 724 1047 l 656 726 l 511 726 z "},"•":{"ha":547,"x_min":153,"x_max":574,"o":"m 533 340 q 512 286 527 311 q 476 243 497 261 q 429 214 454 224 q 375 204 403 204 l 260 204 q 212 215 233 204 q 177 244 191 226 q 158 287 163 262 q 160 340 153 312 l 195 510 q 216 563 200 538 q 253 606 231 588 q 301 635 275 625 q 354 646 327 646 l 469 646 q 517 635 496 646 q 552 606 538 625 q 570 563 565 588 q 568 510 574 538 l 533 340 z "},"–":{"ha":490,"x_min":134,"x_max":534,"o":"m 134 363 l 160 489 l 534 489 l 509 363 l 134 363 z "},"—":{"ha":721,"x_min":134,"x_max":765,"o":"m 134 363 l 160 489 l 765 489 l 739 363 l 134 363 z "},"˜":{"ha":490,"x_min":227,"x_max":646,"o":"m 610 864 q 475 811 547 811 q 415 839 449 811 q 390 854 401 849 q 370 860 378 860 q 302 844 338 860 q 227 791 267 827 l 254 928 q 397 986 323 986 q 457 960 422 986 q 481 943 469 949 q 501 937 493 937 q 646 1006 563 937 l 616 875 l 610 864 z "},"™":{"ha":1321,"x_min":222,"x_max":1440,"o":"m 1222 350 l 1297 699 q 1287 753 1303 730 q 1240 775 1271 775 l 1154 775 q 1097 754 1122 775 q 1064 699 1072 732 l 990 350 l 876 350 l 950 699 q 942 754 958 732 q 895 775 927 775 l 808 775 q 779 769 794 775 q 752 752 764 763 q 730 728 739 742 q 718 699 721 714 l 644 350 l 529 350 l 621 775 l 510 775 l 419 350 l 306 350 l 396 775 l 222 775 l 267 986 l 729 986 l 718 937 q 852 986 778 986 l 905 986 q 996 959 958 986 q 1048 884 1034 932 q 1132 959 1082 932 q 1235 986 1181 986 l 1286 986 q 1404 928 1360 986 q 1433 864 1426 899 q 1430 790 1440 830 l 1336 350 l 1222 350 z "},"š":{"ha":721,"x_min":53,"x_max":846,"o":"m 607 908 l 500 908 l 433 1108 l 533 1108 l 576 1017 l 659 1108 l 757 1108 l 607 908 m 714 243 q 675 145 703 190 q 603 62 648 100 q 414 -16 515 -16 l 53 -16 l 111 257 l 472 257 q 507 271 491 257 q 526 304 522 285 q 520 336 530 323 q 492 350 511 350 l 376 350 q 221 427 277 350 q 186 607 163 505 q 225 705 197 660 q 297 789 252 750 q 486 865 386 865 l 846 865 l 789 593 l 429 593 q 395 579 410 593 q 375 547 379 566 q 381 514 371 528 q 410 500 391 500 l 525 500 q 679 424 625 500 q 714 243 736 348 z "},"›":{"ha":484,"x_min":121,"x_max":542,"o":"m 164 218 l 121 325 l 392 486 l 189 646 l 278 753 l 542 543 l 518 429 l 164 218 z "},"œ":{"ha":1067,"x_min":85,"x_max":1192,"o":"m 624 486 q 624 527 629 508 q 609 561 620 547 q 582 584 598 576 q 545 593 565 593 l 429 593 q 388 584 408 593 q 350 561 368 576 q 321 527 333 547 q 304 486 309 508 l 278 364 q 278 323 274 342 q 292 289 281 303 q 319 266 303 274 q 357 257 336 257 l 472 257 q 514 266 493 257 q 551 288 534 274 q 581 322 568 302 q 597 364 593 342 l 624 486 m 807 -16 q 734 -3 766 -16 q 675 33 701 10 q 616 127 632 70 q 566 68 595 95 q 506 23 538 42 q 438 -5 473 5 q 368 -16 404 -16 l 298 -16 q 142 61 197 -16 q 110 243 85 138 l 186 607 q 296 789 209 712 q 486 865 385 865 l 555 865 q 689 815 635 865 q 722 774 708 798 q 743 722 736 751 q 788 774 764 751 q 840 815 811 798 q 994 865 914 865 l 1192 865 l 1135 593 l 890 593 q 853 586 871 593 q 818 566 834 578 q 789 536 802 553 q 770 500 777 519 l 1000 500 l 966 350 l 736 350 q 740 313 734 330 q 757 284 746 296 q 784 264 768 271 q 819 257 800 257 l 1064 257 l 1006 -16 l 807 -16 z "},"ž":{"ha":721,"x_min":53,"x_max":846,"o":"m 607 908 l 500 908 l 433 1108 l 533 1108 l 576 1017 l 659 1108 l 757 1108 l 607 908 m 53 -16 l 111 249 l 530 593 l 183 593 l 240 865 l 846 865 l 790 602 l 368 257 l 717 257 l 659 -16 l 53 -16 z "},"Ÿ":{"ha":721,"x_min":159,"x_max":872,"o":"m 623 1031 l 656 1181 l 799 1181 l 765 1031 l 623 1031 m 392 1031 l 424 1181 l 568 1181 l 534 1031 l 392 1031 m 777 534 q 738 435 765 480 q 665 353 710 391 q 581 298 623 317 q 490 277 538 279 l 428 -16 l 286 -16 l 347 277 q 266 298 301 279 q 205 353 231 317 q 168 436 177 391 q 171 534 159 481 l 267 986 l 411 986 l 340 656 q 340 614 336 634 q 354 580 344 595 q 382 557 365 566 q 419 549 399 549 l 534 549 q 576 557 555 549 q 613 580 596 566 q 642 614 630 594 q 660 656 654 633 l 730 986 l 872 986 l 777 534 z "},"¡":{"ha":306,"x_min":28,"x_max":431,"o":"m 199 665 l 240 865 l 431 865 l 387 665 l 199 665 m 28 -136 l 227 574 l 321 574 l 218 -136 l 28 -136 z "},"¢":{"ha":721,"x_min":112,"x_max":872,"o":"m 513 107 l 486 -16 l 343 -16 l 370 107 l 325 107 q 170 183 225 107 q 135 364 112 260 l 212 729 q 251 827 224 783 q 323 909 279 872 q 513 986 412 986 l 557 986 l 582 1108 l 725 1108 l 700 986 l 872 986 l 814 714 l 454 714 q 413 706 433 714 q 376 683 393 697 q 346 648 359 668 q 329 607 334 629 l 304 486 q 303 445 300 465 q 318 411 307 425 q 345 388 328 396 q 383 379 361 379 l 743 379 l 685 107 l 513 107 z "},"£":{"ha":721,"x_min":53,"x_max":770,"o":"m 53 -16 l 225 790 q 264 889 237 844 q 335 972 291 934 q 427 1029 380 1011 q 525 1047 474 1047 l 770 1047 l 713 775 l 468 775 q 426 767 446 775 q 388 745 405 759 q 360 711 372 730 q 343 668 348 691 l 319 561 l 550 561 l 519 411 l 288 411 l 256 257 l 717 257 l 659 -16 l 53 -16 z "},"¤":{"ha":721,"x_min":97,"x_max":872,"o":"m 298 -16 q 143 62 199 -16 q 106 145 115 100 q 110 243 97 190 l 212 729 q 251 827 224 783 q 323 909 279 872 q 513 986 412 986 l 872 986 l 814 714 l 454 714 q 416 707 435 714 q 381 687 397 700 q 353 658 365 675 q 334 623 340 642 l 679 623 l 656 509 l 309 509 l 298 464 l 646 464 l 621 350 l 275 350 q 279 313 273 330 q 295 284 284 296 q 322 264 306 271 q 357 257 338 257 l 717 257 l 659 -16 l 298 -16 z "},"¥":{"ha":721,"x_min":81,"x_max":872,"o":"m 454 107 l 428 -16 l 286 -16 l 313 107 l 81 107 l 111 257 l 345 257 l 364 350 l 131 350 l 164 500 l 296 500 q 248 547 266 518 q 209 631 218 585 q 212 729 201 676 l 267 986 l 411 986 l 366 778 q 365 736 361 756 q 380 702 369 717 q 407 679 391 688 q 444 671 423 671 l 559 671 q 601 679 581 671 q 639 701 622 687 q 668 735 656 715 q 685 778 680 755 l 730 986 l 872 986 l 818 729 q 779 630 806 675 q 707 547 751 585 q 673 520 690 532 q 639 500 656 509 l 770 500 l 736 350 l 505 350 l 486 257 l 717 257 l 685 107 l 454 107 z "},"¦":{"ha":258,"x_min":28,"x_max":436,"o":"m 28 -136 l 146 415 l 289 415 l 171 -136 l 28 -136 m 175 557 l 293 1108 l 436 1108 l 318 557 l 175 557 z "},"§":{"ha":721,"x_min":3,"x_max":872,"o":"m 539 364 q 540 405 544 386 q 525 439 536 425 q 497 462 514 454 q 460 471 481 471 q 419 462 439 471 q 382 439 399 454 q 353 405 365 425 q 336 364 341 386 q 336 323 332 342 q 350 289 340 303 q 377 266 361 274 q 414 257 393 257 q 455 266 435 257 q 493 289 476 274 q 523 323 511 303 q 539 364 535 342 m 663 0 q 550 -180 639 -106 q 460 -239 506 -219 q 364 -258 414 -258 l 3 -258 l 61 14 l 422 14 q 455 27 440 14 q 475 61 471 41 q 469 94 479 80 q 441 107 459 107 l 325 107 q 170 183 225 107 q 135 364 112 260 q 174 463 146 417 q 245 547 201 509 q 209 629 216 584 q 212 729 201 675 q 251 827 224 783 q 323 909 279 872 q 513 986 412 986 l 872 986 l 814 714 l 454 714 q 437 711 446 714 q 420 701 428 707 q 408 687 413 695 q 401 668 403 678 q 407 636 396 649 q 435 623 417 623 l 550 623 q 704 546 650 623 q 742 462 734 507 q 741 364 751 417 q 700 264 728 311 q 629 182 672 218 q 665 99 656 144 q 663 0 673 53 z "},"¨":{"ha":490,"x_min":235,"x_max":642,"o":"m 235 836 l 267 986 l 411 986 l 378 836 l 235 836 m 467 836 l 500 986 l 642 986 l 608 836 l 467 836 z "},"©":{"ha":836,"x_min":85,"x_max":913,"o":"m 393 131 q 346 142 367 131 q 311 171 324 153 q 293 214 298 189 q 294 267 288 239 l 345 510 q 366 563 351 538 q 403 606 382 588 q 450 635 425 625 q 503 646 476 646 l 690 646 l 659 496 l 471 496 q 437 482 453 496 q 418 450 421 469 l 392 328 q 397 295 387 309 q 425 282 408 282 l 612 282 l 581 131 l 393 131 m 804 583 q 805 625 809 605 q 791 659 802 644 q 764 682 780 673 q 726 690 747 690 l 403 690 q 361 682 382 690 q 324 659 341 673 q 295 625 307 644 q 278 583 283 605 l 196 195 q 195 153 191 173 q 210 119 199 134 q 237 96 220 104 q 275 87 254 87 l 597 87 q 640 96 619 87 q 676 118 660 104 q 705 152 693 132 q 722 195 717 172 l 804 583 m 831 243 q 791 144 818 189 q 720 61 764 99 q 529 -16 631 -16 l 298 -16 q 142 61 197 -16 q 110 243 85 138 l 171 534 q 209 633 182 588 q 281 715 236 677 q 471 791 370 791 l 703 791 q 857 715 802 791 q 892 534 913 640 l 831 243 z "},"ª":{"ha":576,"x_min":158,"x_max":696,"o":"m 551 699 q 544 754 559 732 q 497 775 529 775 l 410 775 q 381 769 395 775 q 354 752 366 763 q 333 728 342 742 q 321 699 323 714 l 301 607 q 301 578 298 592 q 311 554 304 564 q 331 537 319 543 q 357 530 342 530 l 444 530 q 473 537 459 530 q 499 554 488 543 q 520 578 511 564 q 532 607 528 592 l 551 699 m 471 319 l 476 342 q 471 338 473 340 q 465 335 469 336 l 465 336 q 400 319 432 319 l 313 319 q 193 378 237 319 q 165 441 172 407 q 167 517 158 476 l 225 790 q 256 864 235 830 q 310 928 277 899 q 454 986 378 986 l 542 986 q 660 928 618 986 q 689 865 682 899 q 686 790 696 831 l 587 319 l 471 319 z "},"«":{"ha":831,"x_min":97,"x_max":864,"o":"m 361 -21 l 97 189 l 121 304 l 475 514 l 518 407 l 248 248 l 450 86 l 361 -21 m 707 -21 l 443 189 l 468 304 l 821 514 l 864 407 l 595 248 l 796 86 l 707 -21 z "},"¬":{"ha":606,"x_min":134,"x_max":650,"o":"m 478 240 l 503 363 l 134 363 l 160 489 l 650 489 l 597 240 l 478 240 z "},"®":{"ha":836,"x_min":85,"x_max":913,"o":"m 559 465 q 557 487 563 478 q 539 496 551 496 l 452 496 l 437 433 l 525 433 q 548 443 538 433 q 559 465 557 453 m 519 131 l 549 273 q 544 324 556 303 q 505 345 532 345 l 418 345 l 374 131 l 288 131 l 397 646 l 585 646 q 632 635 611 646 q 667 606 654 625 q 686 563 681 588 q 685 510 690 538 q 654 437 675 468 q 599 389 632 406 q 635 273 651 352 l 604 131 l 519 131 m 804 583 q 805 625 809 605 q 791 659 802 644 q 764 682 780 673 q 726 690 747 690 l 403 690 q 361 682 382 690 q 324 659 341 673 q 295 625 307 644 q 278 583 283 605 l 196 195 q 195 153 191 173 q 210 119 199 134 q 237 96 220 104 q 275 87 254 87 l 597 87 q 640 96 619 87 q 676 118 660 104 q 705 152 693 132 q 722 195 717 172 l 804 583 m 831 243 q 791 144 818 189 q 720 61 764 99 q 529 -16 631 -16 l 298 -16 q 142 61 197 -16 q 110 243 85 138 l 171 534 q 209 633 182 588 q 281 715 236 677 q 471 791 370 791 l 703 791 q 857 715 802 791 q 892 534 913 640 l 831 243 z "},"°":{"ha":421,"x_min":233,"x_max":564,"o":"m 478 888 q 478 919 481 904 q 467 945 475 934 q 446 963 458 956 q 416 970 433 970 q 385 963 400 970 q 356 945 369 956 q 333 919 342 934 q 319 888 323 904 q 319 855 316 870 q 331 829 322 840 q 353 811 340 817 q 382 804 366 804 q 413 811 397 804 q 442 829 429 817 q 465 855 455 840 q 478 888 474 870 m 550 888 q 481 774 538 821 q 425 739 454 751 q 364 726 395 726 q 309 739 334 726 q 267 774 284 751 q 245 888 233 821 q 270 948 253 920 q 315 1000 287 976 q 372 1036 342 1024 q 432 1047 401 1047 q 488 1036 463 1047 q 529 1000 513 1024 q 550 888 564 952 z "},"±":{"ha":606,"x_min":53,"x_max":664,"o":"m 53 -16 l 82 111 l 571 111 l 543 -16 l 53 -16 m 452 422 l 411 228 l 290 228 l 332 422 l 147 422 l 174 549 l 358 549 l 400 743 l 519 743 l 479 549 l 664 549 l 636 422 l 452 422 z "},"²":{"ha":432,"x_min":183,"x_max":587,"o":"m 183 593 l 218 760 q 240 813 224 788 q 277 856 256 838 q 325 885 299 874 q 378 896 351 896 l 404 896 q 440 904 426 896 q 457 928 454 912 q 453 949 460 941 q 433 957 446 957 l 260 957 l 293 1108 l 481 1108 q 529 1097 507 1108 q 564 1068 550 1086 q 582 1025 577 1050 q 581 972 587 1000 l 575 942 q 553 889 569 913 q 516 846 538 864 q 468 817 494 827 q 415 806 442 806 l 345 806 q 322 797 332 806 q 309 775 312 787 l 301 743 l 532 743 l 500 593 l 183 593 z "},"³":{"ha":432,"x_min":183,"x_max":586,"o":"m 529 729 q 507 676 523 701 q 470 633 492 652 q 423 604 449 614 q 371 593 397 593 l 183 593 l 215 743 l 389 743 q 412 753 400 743 q 425 775 423 762 q 421 797 429 787 q 403 806 414 806 l 286 806 l 306 896 l 422 896 q 444 905 434 896 q 457 928 454 914 q 453 949 460 941 q 433 957 446 957 l 260 957 l 293 1108 l 481 1108 q 531 1097 509 1108 q 565 1067 552 1086 q 582 1022 578 1048 q 579 966 586 996 q 549 899 572 930 q 493 850 526 869 q 529 729 548 814 z "},"´":{"ha":306,"x_min":258,"x_max":422,"o":"m 323 787 l 258 986 l 383 986 l 422 787 l 323 787 z "},"µ":{"ha":721,"x_min":3,"x_max":846,"o":"m 298 -16 q 258 -9 277 -16 q 222 7 239 -3 q 213 14 218 10 q 205 22 209 17 l 146 -258 l 3 -258 l 240 865 l 383 865 l 278 364 q 278 323 274 342 q 292 289 281 303 q 319 266 303 274 q 357 257 336 257 l 575 257 l 704 865 l 846 865 l 659 -16 l 298 -16 z "},"μ":{"ha":721,"x_min":3,"x_max":846,"o":"m 298 -16 q 258 -9 277 -16 q 222 7 239 -3 q 213 14 218 10 q 205 22 209 17 l 146 -258 l 3 -258 l 240 865 l 383 865 l 278 364 q 278 323 274 342 q 292 289 281 303 q 319 266 303 274 q 357 257 336 257 l 575 257 l 704 865 l 846 865 l 659 -16 l 298 -16 z "},"¶":{"ha":836,"x_min":188,"x_max":987,"o":"m 840 836 l 607 -258 l 465 -258 l 697 836 l 608 836 l 376 -258 l 235 -258 l 376 411 q 233 488 286 415 q 196 571 205 526 q 199 668 188 615 l 212 729 q 251 827 224 783 q 323 909 279 872 q 513 986 412 986 l 987 986 l 956 836 l 840 836 z "},"·":{"ha":306,"x_min":126,"x_max":358,"o":"m 126 325 l 170 525 l 358 525 l 315 325 l 126 325 z "},"¸":{"ha":328,"x_min":-1,"x_max":246,"o":"m 237 -146 q 221 -190 233 -170 q 192 -225 209 -210 q 153 -250 174 -241 q 110 -258 132 -258 l -1 -258 l 33 -192 l 122 -192 q 157 -178 141 -192 q 176 -146 172 -165 q 171 -113 180 -127 q 143 -100 162 -100 l 68 -100 l 126 39 l 225 39 l 189 -40 q 232 -81 218 -52 q 237 -146 246 -110 z "},"¹":{"ha":258,"x_min":183,"x_max":408,"o":"m 183 593 l 215 743 l 244 743 l 289 957 l 260 957 l 293 1108 l 408 1108 l 330 743 l 358 743 l 326 593 l 183 593 z "},"º":{"ha":576,"x_min":158,"x_max":705,"o":"m 551 699 q 542 753 557 730 q 497 775 527 775 l 410 775 q 381 769 395 775 q 354 752 366 763 q 333 728 342 742 q 321 699 323 714 l 301 607 q 301 578 298 592 q 311 554 304 564 q 331 537 319 543 q 357 530 342 530 l 444 530 q 474 536 460 530 q 500 552 489 542 q 520 577 512 563 q 532 607 528 591 l 551 699 m 628 517 q 598 440 619 475 q 543 376 576 406 q 400 319 477 319 l 313 319 q 193 378 237 319 q 165 441 172 407 q 167 517 158 476 l 225 790 q 256 864 235 830 q 310 928 277 899 q 454 986 378 986 l 542 986 q 660 928 618 986 q 686 790 705 869 l 628 517 z "},"»":{"ha":831,"x_min":71,"x_max":838,"o":"m 113 -21 l 71 86 l 340 248 l 139 407 l 228 514 l 490 304 l 467 189 l 113 -21 m 460 -21 l 416 86 l 686 248 l 485 407 l 574 514 l 838 304 l 812 189 l 460 -21 z "},"¼":{"ha":606,"x_min":150,"x_max":661,"o":"m 363 568 l 390 694 l 414 694 l 449 860 l 424 860 l 452 986 l 549 986 l 488 694 l 510 694 l 482 568 l 363 568 m 150 435 l 171 538 l 661 538 l 639 435 l 150 435 m 354 -16 l 368 53 l 183 53 l 237 306 l 313 306 l 285 179 l 395 179 l 443 403 l 518 403 l 428 -16 l 354 -16 z "},"½":{"ha":606,"x_min":150,"x_max":661,"o":"m 363 568 l 390 694 l 414 694 l 449 860 l 424 860 l 452 986 l 549 986 l 488 694 l 510 694 l 482 568 l 363 568 m 150 435 l 171 538 l 661 538 l 639 435 l 150 435 m 170 -16 l 199 121 q 216 164 203 144 q 246 200 229 185 q 285 224 264 216 q 329 233 307 233 l 364 233 q 380 239 374 233 q 389 256 385 244 q 372 277 394 277 l 231 277 l 258 403 l 412 403 q 451 394 434 403 q 480 371 469 386 q 495 335 491 355 q 493 292 498 315 l 489 267 q 471 223 484 243 q 440 188 458 203 q 401 164 422 173 q 358 155 380 155 l 300 155 q 275 134 279 155 l 271 111 l 456 111 l 428 -16 l 170 -16 z "},"¾":{"ha":606,"x_min":150,"x_max":661,"o":"m 150 435 l 171 538 l 661 538 l 639 435 l 150 435 m 354 -16 l 368 53 l 183 53 l 237 306 l 313 306 l 285 179 l 395 179 l 443 403 l 518 403 l 428 -16 l 354 -16 m 576 681 q 558 637 571 657 q 528 601 545 616 q 489 577 510 586 q 446 568 467 568 l 293 568 l 321 694 l 461 694 q 486 717 482 694 q 471 739 492 739 l 375 739 l 393 817 l 488 817 q 513 839 509 817 q 496 860 517 860 l 354 860 l 383 986 l 536 986 q 575 978 558 986 q 604 954 593 969 q 618 918 614 939 q 616 875 622 898 l 616 869 q 593 815 609 838 q 551 777 577 791 q 576 681 591 747 z "},"¿":{"ha":652,"x_min":71,"x_max":720,"o":"m 488 665 l 529 865 l 720 865 l 676 665 l 488 665 m 273 -136 q 118 -60 174 -136 q 80 24 90 -21 q 82 121 71 68 q 195 302 106 227 q 286 360 239 341 q 383 379 332 379 l 461 379 l 515 574 l 610 574 l 561 228 l 351 228 q 317 215 332 228 q 297 182 301 201 q 303 150 293 163 q 332 136 313 136 l 623 136 l 564 -136 l 273 -136 z "},"À":{"ha":721,"x_min":53,"x_max":829,"o":"m 536 1031 l 471 1229 l 596 1229 l 635 1031 l 536 1031 m 281 379 l 600 379 l 648 607 q 650 650 654 630 q 636 684 646 669 q 608 706 625 698 q 570 714 591 714 l 454 714 q 413 706 433 714 q 376 683 393 697 q 346 648 359 668 q 329 607 334 629 l 281 379 m 517 -16 l 568 228 l 249 228 l 197 -16 l 53 -16 l 212 729 q 251 827 224 783 q 323 909 279 872 q 513 986 412 986 l 628 986 q 718 968 679 986 q 783 911 756 949 q 820 828 812 872 q 818 729 829 784 l 659 -16 l 517 -16 z "},"Á":{"ha":721,"x_min":53,"x_max":829,"o":"m 623 1031 l 524 1031 l 646 1229 l 772 1229 l 623 1031 m 281 379 l 600 379 l 648 607 q 650 650 654 630 q 636 684 646 669 q 608 706 625 698 q 570 714 591 714 l 454 714 q 413 706 433 714 q 376 683 393 697 q 346 648 359 668 q 329 607 334 629 l 281 379 m 517 -16 l 568 228 l 249 228 l 197 -16 l 53 -16 l 212 729 q 251 827 224 783 q 323 909 279 872 q 513 986 412 986 l 628 986 q 718 968 679 986 q 783 911 756 949 q 820 828 812 872 q 818 729 829 784 l 659 -16 l 517 -16 z "},"Â":{"ha":721,"x_min":53,"x_max":829,"o":"m 642 1031 l 597 1122 l 517 1031 l 416 1031 l 568 1229 l 675 1229 l 741 1031 l 642 1031 m 281 379 l 600 379 l 648 607 q 650 650 654 630 q 636 684 646 669 q 608 706 625 698 q 570 714 591 714 l 454 714 q 413 706 433 714 q 376 683 393 697 q 346 648 359 668 q 329 607 334 629 l 281 379 m 517 -16 l 568 228 l 249 228 l 197 -16 l 53 -16 l 212 729 q 251 827 224 783 q 323 909 279 872 q 513 986 412 986 l 628 986 q 718 968 679 986 q 783 911 756 949 q 820 828 812 872 q 818 729 829 784 l 659 -16 l 517 -16 z "},"Ã":{"ha":721,"x_min":53,"x_max":829,"o":"m 772 1083 q 706 1043 740 1056 q 636 1031 673 1031 q 578 1057 610 1031 q 532 1079 549 1079 q 464 1062 500 1079 q 387 1011 428 1046 l 416 1147 q 558 1206 484 1206 q 588 1199 573 1206 q 618 1179 602 1192 q 664 1157 644 1157 q 730 1174 694 1157 q 807 1225 766 1190 l 779 1093 l 772 1083 m 281 379 l 600 379 l 648 607 q 650 650 654 630 q 636 684 646 669 q 608 706 625 698 q 570 714 591 714 l 454 714 q 413 706 433 714 q 376 683 393 697 q 346 648 359 668 q 329 607 334 629 l 281 379 m 517 -16 l 568 228 l 249 228 l 197 -16 l 53 -16 l 212 729 q 251 827 224 783 q 323 909 279 872 q 513 986 412 986 l 628 986 q 718 968 679 986 q 783 911 756 949 q 820 828 812 872 q 818 729 829 784 l 659 -16 l 517 -16 z "},"Ä":{"ha":721,"x_min":53,"x_max":829,"o":"m 623 1031 l 656 1181 l 799 1181 l 765 1031 l 623 1031 m 392 1031 l 424 1181 l 568 1181 l 534 1031 l 392 1031 m 281 379 l 600 379 l 648 607 q 650 650 654 630 q 636 684 646 669 q 608 706 625 698 q 570 714 591 714 l 454 714 q 413 706 433 714 q 376 683 393 697 q 346 648 359 668 q 329 607 334 629 l 281 379 m 517 -16 l 568 228 l 249 228 l 197 -16 l 53 -16 l 212 729 q 251 827 224 783 q 323 909 279 872 q 513 986 412 986 l 628 986 q 718 968 679 986 q 783 911 756 949 q 820 828 812 872 q 818 729 829 784 l 659 -16 l 517 -16 z "},"Å":{"ha":721,"x_min":53,"x_max":838,"o":"m 665 1069 q 666 1101 669 1086 q 655 1127 663 1116 q 634 1145 647 1138 q 606 1152 622 1152 q 574 1145 589 1152 q 545 1127 558 1138 q 523 1101 532 1116 q 510 1069 513 1086 q 509 1038 506 1053 q 520 1011 512 1023 q 541 993 528 1000 q 570 986 554 986 q 602 993 586 986 q 631 1011 618 1000 q 653 1038 644 1023 q 665 1069 662 1053 m 281 379 l 600 379 l 648 607 q 650 650 654 630 q 636 684 646 669 q 608 706 625 698 q 570 714 591 714 l 454 714 q 413 706 433 714 q 376 683 393 697 q 346 648 359 668 q 329 607 334 629 l 281 379 m 517 -16 l 568 228 l 249 228 l 197 -16 l 53 -16 l 212 729 q 245 817 222 776 q 304 895 269 859 q 371 946 336 926 q 443 977 406 966 q 435 1069 425 1018 q 459 1131 442 1102 q 504 1182 475 1159 q 621 1229 557 1229 q 677 1217 653 1229 q 720 1182 701 1206 q 742 1131 736 1159 q 741 1069 748 1102 q 723 1021 735 1044 q 694 977 711 998 q 754 946 729 967 q 796 895 779 926 q 818 729 838 823 l 659 -16 l 517 -16 z "},"Æ":{"ha":1008,"x_min":53,"x_max":1161,"o":"m 281 379 l 600 379 l 648 607 q 650 650 654 630 q 636 684 646 669 q 608 706 625 698 q 570 714 591 714 l 454 714 q 413 706 433 714 q 376 683 393 697 q 346 648 359 668 q 329 607 334 629 l 281 379 m 761 -16 q 604 61 660 -16 q 568 138 577 97 q 568 228 559 179 l 249 228 l 197 -16 l 53 -16 l 212 729 q 251 827 224 783 q 323 909 279 872 q 513 986 412 986 l 582 986 q 720 936 667 986 l 730 986 l 1161 986 l 1103 714 l 814 714 l 782 561 l 956 561 l 924 411 l 750 411 l 741 364 q 739 322 735 342 q 753 288 742 302 q 781 266 764 274 q 819 257 798 257 l 1006 257 l 947 -16 l 761 -16 z "},"Ç":{"ha":721,"x_min":97,"x_max":872,"o":"m 443 -16 l 432 -40 q 457 -57 446 -46 q 475 -81 469 -67 q 483 -112 481 -95 q 481 -146 485 -128 q 464 -190 477 -170 q 434 -225 452 -210 q 395 -250 416 -241 q 351 -258 374 -258 l 240 -258 l 275 -192 l 364 -192 q 398 -178 382 -192 q 418 -146 414 -165 q 413 -113 422 -127 q 385 -100 404 -100 l 311 -100 l 345 -16 l 298 -16 q 143 62 199 -16 q 106 145 115 100 q 110 243 97 190 l 212 729 q 251 827 224 783 q 323 909 279 872 q 513 986 412 986 l 872 986 l 814 714 l 454 714 q 413 706 433 714 q 376 683 393 697 q 346 648 359 668 q 329 607 334 629 l 278 364 q 278 323 274 342 q 292 289 281 303 q 319 266 303 274 q 357 257 336 257 l 717 257 l 659 -16 l 443 -16 z "},"È":{"ha":606,"x_min":97,"x_max":757,"o":"m 479 1031 l 412 1229 l 539 1229 l 576 1031 l 479 1031 m 298 -16 q 142 61 197 -16 q 105 144 113 99 q 110 243 97 189 l 267 986 l 757 986 l 699 714 l 353 714 l 319 561 l 550 561 l 519 411 l 288 411 l 278 364 q 277 322 273 342 q 291 288 280 302 q 318 266 301 274 q 357 257 335 257 l 602 257 l 543 -16 l 298 -16 z "},"É":{"ha":606,"x_min":97,"x_max":757,"o":"m 564 1031 l 465 1031 l 589 1229 l 714 1229 l 564 1031 m 298 -16 q 142 61 197 -16 q 105 144 113 99 q 110 243 97 189 l 267 986 l 757 986 l 699 714 l 353 714 l 319 561 l 550 561 l 519 411 l 288 411 l 278 364 q 277 322 273 342 q 291 288 280 302 q 318 266 301 274 q 357 257 335 257 l 602 257 l 543 -16 l 298 -16 z "},"Ê":{"ha":606,"x_min":97,"x_max":757,"o":"m 583 1031 l 541 1122 l 460 1031 l 359 1031 l 510 1229 l 618 1229 l 684 1031 l 583 1031 m 298 -16 q 142 61 197 -16 q 105 144 113 99 q 110 243 97 189 l 267 986 l 757 986 l 699 714 l 353 714 l 319 561 l 550 561 l 519 411 l 288 411 l 278 364 q 277 322 273 342 q 291 288 280 302 q 318 266 301 274 q 357 257 335 257 l 602 257 l 543 -16 l 298 -16 z "},"Ë":{"ha":606,"x_min":97,"x_max":757,"o":"m 566 1031 l 597 1181 l 742 1181 l 708 1031 l 566 1031 m 335 1031 l 367 1181 l 510 1181 l 478 1031 l 335 1031 m 298 -16 q 142 61 197 -16 q 105 144 113 99 q 110 243 97 189 l 267 986 l 757 986 l 699 714 l 353 714 l 319 561 l 550 561 l 519 411 l 288 411 l 278 364 q 277 322 273 342 q 291 288 280 302 q 318 266 301 274 q 357 257 335 257 l 602 257 l 543 -16 l 298 -16 z "},"Ì":{"ha":374,"x_min":53,"x_max":526,"o":"m 364 1031 l 297 1229 l 422 1229 l 461 1031 l 364 1031 m 53 -16 l 111 257 l 170 257 l 267 714 l 208 714 l 267 986 l 526 986 l 468 714 l 411 714 l 314 257 l 371 257 l 313 -16 l 53 -16 z "},"Í":{"ha":374,"x_min":53,"x_max":597,"o":"m 449 1031 l 350 1031 l 473 1229 l 597 1229 l 449 1031 m 53 -16 l 111 257 l 170 257 l 267 714 l 208 714 l 267 986 l 526 986 l 468 714 l 411 714 l 314 257 l 371 257 l 313 -16 l 53 -16 z "},"Î":{"ha":374,"x_min":53,"x_max":568,"o":"m 468 1031 l 425 1122 l 345 1031 l 244 1031 l 393 1229 l 503 1229 l 568 1031 l 468 1031 m 53 -16 l 111 257 l 170 257 l 267 714 l 208 714 l 267 986 l 526 986 l 468 714 l 411 714 l 314 257 l 371 257 l 313 -16 l 53 -16 z "},"Ï":{"ha":374,"x_min":53,"x_max":627,"o":"m 450 1031 l 482 1181 l 627 1181 l 593 1031 l 450 1031 m 218 1031 l 252 1181 l 395 1181 l 363 1031 l 218 1031 m 53 -16 l 111 257 l 170 257 l 267 714 l 208 714 l 267 986 l 526 986 l 468 714 l 411 714 l 314 257 l 371 257 l 313 -16 l 53 -16 z "},"Ð":{"ha":807,"x_min":117,"x_max":927,"o":"m 734 607 q 735 648 739 629 q 721 683 732 668 q 694 706 711 697 q 656 714 677 714 l 440 714 l 407 561 l 637 561 l 607 411 l 375 411 l 343 257 l 558 257 q 601 266 580 257 q 638 288 621 274 q 667 322 655 302 q 685 364 680 342 l 734 607 m 802 243 q 763 144 790 189 q 692 61 736 99 q 500 -16 603 -16 l 140 -16 l 232 411 l 117 411 l 149 561 l 264 561 l 354 986 l 714 986 q 803 967 765 986 q 869 909 841 948 q 905 729 927 836 l 802 243 z "},"Ñ":{"ha":721,"x_min":53,"x_max":829,"o":"m 772 1083 q 706 1043 740 1056 q 636 1031 673 1031 q 578 1057 610 1031 q 532 1079 549 1079 q 464 1062 500 1079 q 387 1011 428 1046 l 416 1147 q 558 1206 484 1206 q 588 1199 573 1206 q 618 1179 602 1192 q 664 1157 644 1157 q 730 1174 694 1157 q 807 1225 766 1190 l 779 1093 l 772 1083 m 517 -16 l 648 607 q 650 650 654 630 q 636 684 646 669 q 608 706 625 698 q 570 714 591 714 l 454 714 q 413 706 433 714 q 376 683 393 697 q 346 648 359 668 q 329 607 334 629 l 197 -16 l 53 -16 l 212 729 q 251 827 224 783 q 322 909 277 872 q 513 986 411 986 l 628 986 q 718 968 679 986 q 783 911 756 949 q 820 828 812 872 q 818 729 829 784 l 659 -16 l 517 -16 z "},"Ò":{"ha":721,"x_min":85,"x_max":840,"o":"m 536 1031 l 471 1229 l 596 1229 l 635 1031 l 536 1031 m 648 607 q 649 648 653 629 q 635 683 646 668 q 607 706 624 697 q 570 714 591 714 l 454 714 q 413 706 433 714 q 376 683 393 697 q 346 648 359 668 q 329 607 334 629 l 278 364 q 278 323 274 342 q 292 289 281 303 q 319 266 303 274 q 357 257 336 257 l 472 257 q 514 266 493 257 q 551 288 534 274 q 581 322 568 302 q 597 364 593 342 l 648 607 m 714 243 q 676 144 703 189 q 604 61 649 99 q 414 -16 517 -16 l 298 -16 q 142 61 197 -16 q 110 243 85 138 l 212 729 q 251 827 224 783 q 322 909 277 872 q 513 986 411 986 l 628 986 q 782 909 728 986 q 818 729 840 836 l 714 243 z "},"Ó":{"ha":721,"x_min":85,"x_max":840,"o":"m 623 1031 l 524 1031 l 646 1229 l 772 1229 l 623 1031 m 648 607 q 649 648 653 629 q 635 683 646 668 q 607 706 624 697 q 570 714 591 714 l 454 714 q 413 706 433 714 q 376 683 393 697 q 346 648 359 668 q 329 607 334 629 l 278 364 q 278 323 274 342 q 292 289 281 303 q 319 266 303 274 q 357 257 336 257 l 472 257 q 514 266 493 257 q 551 288 534 274 q 581 322 568 302 q 597 364 593 342 l 648 607 m 714 243 q 676 144 703 189 q 604 61 649 99 q 414 -16 517 -16 l 298 -16 q 142 61 197 -16 q 110 243 85 138 l 212 729 q 251 827 224 783 q 322 909 277 872 q 513 986 411 986 l 628 986 q 782 909 728 986 q 818 729 840 836 l 714 243 z "},"Ô":{"ha":721,"x_min":85,"x_max":840,"o":"m 642 1031 l 597 1122 l 517 1031 l 416 1031 l 568 1229 l 675 1229 l 741 1031 l 642 1031 m 648 607 q 649 648 653 629 q 635 683 646 668 q 607 706 624 697 q 570 714 591 714 l 454 714 q 413 706 433 714 q 376 683 393 697 q 346 648 359 668 q 329 607 334 629 l 278 364 q 278 323 274 342 q 292 289 281 303 q 319 266 303 274 q 357 257 336 257 l 472 257 q 514 266 493 257 q 551 288 534 274 q 581 322 568 302 q 597 364 593 342 l 648 607 m 714 243 q 676 144 703 189 q 604 61 649 99 q 414 -16 517 -16 l 298 -16 q 142 61 197 -16 q 110 243 85 138 l 212 729 q 251 827 224 783 q 322 909 277 872 q 513 986 411 986 l 628 986 q 782 909 728 986 q 818 729 840 836 l 714 243 z "},"Õ":{"ha":721,"x_min":85,"x_max":840,"o":"m 772 1083 q 706 1043 740 1056 q 636 1031 673 1031 q 578 1057 610 1031 q 532 1079 549 1079 q 464 1062 500 1079 q 387 1011 428 1046 l 416 1147 q 558 1206 484 1206 q 588 1199 573 1206 q 618 1179 602 1192 q 664 1157 644 1157 q 730 1174 694 1157 q 807 1225 766 1190 l 779 1093 l 772 1083 m 648 607 q 649 648 653 629 q 635 683 646 668 q 607 706 624 697 q 570 714 591 714 l 454 714 q 413 706 433 714 q 376 683 393 697 q 346 648 359 668 q 329 607 334 629 l 278 364 q 278 323 274 342 q 292 289 281 303 q 319 266 303 274 q 357 257 336 257 l 472 257 q 514 266 493 257 q 551 288 534 274 q 581 322 568 302 q 597 364 593 342 l 648 607 m 714 243 q 676 144 703 189 q 604 61 649 99 q 414 -16 517 -16 l 298 -16 q 142 61 197 -16 q 110 243 85 138 l 212 729 q 251 827 224 783 q 322 909 277 872 q 513 986 411 986 l 628 986 q 782 909 728 986 q 818 729 840 836 l 714 243 z "},"Ö":{"ha":721,"x_min":85,"x_max":840,"o":"m 392 1031 l 424 1181 l 568 1181 l 534 1031 l 392 1031 m 623 1031 l 656 1181 l 799 1181 l 765 1031 l 623 1031 m 648 607 q 649 648 653 629 q 635 683 646 668 q 607 706 624 697 q 570 714 591 714 l 454 714 q 413 706 433 714 q 376 683 393 697 q 346 648 359 668 q 329 607 334 629 l 278 364 q 278 323 274 342 q 292 289 281 303 q 319 266 303 274 q 357 257 336 257 l 472 257 q 514 266 493 257 q 551 288 534 274 q 581 322 568 302 q 597 364 593 342 l 648 607 m 714 243 q 676 144 703 189 q 604 61 649 99 q 414 -16 517 -16 l 298 -16 q 142 61 197 -16 q 110 243 85 138 l 212 729 q 251 827 224 783 q 322 909 277 872 q 513 986 411 986 l 628 986 q 782 909 728 986 q 818 729 840 836 l 714 243 z "},"×":{"ha":568,"x_min":111,"x_max":637,"o":"m 469 182 l 355 336 l 176 182 l 111 271 l 289 425 l 176 579 l 279 668 l 393 514 l 572 668 l 637 579 l 458 425 l 572 271 l 469 182 z "},"Ø":{"ha":721,"x_min":1,"x_max":926,"o":"m 278 364 q 277 350 277 357 q 277 338 277 344 l 607 704 q 590 712 600 711 q 570 714 580 714 l 454 714 q 413 706 433 714 q 376 683 393 697 q 346 648 359 668 q 329 607 334 629 l 278 364 m 648 607 q 651 622 651 614 q 652 635 652 629 l 319 267 q 337 259 327 261 q 357 257 347 257 l 472 257 q 514 266 493 257 q 551 288 534 274 q 581 322 568 302 q 597 364 593 342 l 648 607 m 821 822 q 824 776 825 799 q 818 729 822 753 l 714 243 q 676 144 703 189 q 604 61 649 99 q 414 -16 517 -16 l 298 -16 q 139 66 191 -16 l 58 -21 l 1 33 l 106 149 q 102 195 101 172 q 110 243 104 218 l 212 729 q 251 827 224 783 q 322 909 277 872 q 513 986 411 986 l 628 986 q 789 904 734 986 l 869 993 l 926 939 l 821 822 z "},"Ù":{"ha":721,"x_min":85,"x_max":872,"o":"m 536 1031 l 471 1229 l 596 1229 l 635 1031 l 536 1031 m 714 243 q 676 144 703 189 q 604 61 649 99 q 414 -16 517 -16 l 298 -16 q 142 61 197 -16 q 110 243 85 138 l 267 986 l 411 986 l 278 364 q 278 323 274 342 q 292 289 281 303 q 319 266 303 274 q 357 257 336 257 l 472 257 q 514 266 493 257 q 551 288 534 274 q 581 322 568 302 q 597 364 593 342 l 730 986 l 872 986 l 714 243 z "},"Ú":{"ha":721,"x_min":85,"x_max":872,"o":"m 623 1031 l 524 1031 l 646 1229 l 772 1229 l 623 1031 m 714 243 q 676 144 703 189 q 604 61 649 99 q 414 -16 517 -16 l 298 -16 q 142 61 197 -16 q 110 243 85 138 l 267 986 l 411 986 l 278 364 q 278 323 274 342 q 292 289 281 303 q 319 266 303 274 q 357 257 336 257 l 472 257 q 514 266 493 257 q 551 288 534 274 q 581 322 568 302 q 597 364 593 342 l 730 986 l 872 986 l 714 243 z "},"Û":{"ha":721,"x_min":85,"x_max":872,"o":"m 642 1031 l 597 1122 l 517 1031 l 416 1031 l 568 1229 l 675 1229 l 741 1031 l 642 1031 m 714 243 q 676 144 703 189 q 604 61 649 99 q 414 -16 517 -16 l 298 -16 q 142 61 197 -16 q 110 243 85 138 l 267 986 l 411 986 l 278 364 q 278 323 274 342 q 292 289 281 303 q 319 266 303 274 q 357 257 336 257 l 472 257 q 514 266 493 257 q 551 288 534 274 q 581 322 568 302 q 597 364 593 342 l 730 986 l 872 986 l 714 243 z "},"Ü":{"ha":721,"x_min":85,"x_max":872,"o":"m 392 1031 l 424 1181 l 568 1181 l 534 1031 l 392 1031 m 623 1031 l 656 1181 l 799 1181 l 765 1031 l 623 1031 m 714 243 q 676 144 703 189 q 604 61 649 99 q 414 -16 517 -16 l 298 -16 q 142 61 197 -16 q 110 243 85 138 l 267 986 l 411 986 l 278 364 q 278 323 274 342 q 292 289 281 303 q 319 266 303 274 q 357 257 336 257 l 472 257 q 514 266 493 257 q 551 288 534 274 q 581 322 568 302 q 597 364 593 342 l 730 986 l 872 986 l 714 243 z "},"Ý":{"ha":721,"x_min":159,"x_max":872,"o":"m 623 1031 l 524 1031 l 646 1229 l 772 1229 l 623 1031 m 777 534 q 738 435 765 480 q 665 353 710 391 q 581 298 623 317 q 490 277 538 279 l 428 -16 l 286 -16 l 347 277 q 266 298 301 279 q 205 353 231 317 q 168 436 177 391 q 171 534 159 481 l 267 986 l 411 986 l 340 656 q 340 614 336 634 q 354 580 344 595 q 382 557 365 566 q 419 549 399 549 l 534 549 q 576 557 555 549 q 613 580 596 566 q 642 614 630 594 q 660 656 654 633 l 730 986 l 872 986 l 777 534 z "},"Þ":{"ha":721,"x_min":53,"x_max":784,"o":"m 551 425 q 552 455 555 441 q 542 479 549 469 q 522 495 534 489 q 496 501 510 501 l 307 501 l 275 349 l 463 349 q 491 355 477 349 q 518 371 506 361 q 539 396 530 382 q 551 425 548 410 m 760 456 q 647 275 735 349 q 461 199 560 199 l 243 199 l 197 -16 l 53 -16 l 267 986 l 411 986 l 364 774 l 582 774 q 671 755 632 774 q 737 697 710 736 q 775 614 766 659 q 772 517 784 570 l 760 456 z "},"ß":{"ha":721,"x_min":28,"x_max":840,"o":"m 714 243 q 675 145 703 190 q 603 62 648 100 q 414 -16 515 -16 l 286 -16 l 345 257 l 443 257 q 472 263 458 257 q 499 280 487 269 q 520 305 511 291 q 532 335 528 319 q 533 364 536 350 q 523 388 530 378 q 503 405 515 399 q 476 411 491 411 l 376 411 l 408 561 l 509 561 q 537 567 523 561 q 564 584 551 574 q 585 609 576 595 q 597 637 593 623 q 598 667 601 653 q 587 691 595 681 q 567 708 579 702 q 541 714 555 714 l 425 714 q 396 708 410 714 q 369 691 381 702 q 348 667 357 681 q 336 637 339 653 l 171 -136 l 28 -136 l 212 729 q 251 828 224 784 q 322 911 277 872 q 414 968 367 949 q 513 986 461 986 l 628 986 q 782 909 728 986 q 818 729 840 836 l 814 717 q 786 637 806 675 q 734 567 767 600 q 685 519 711 539 q 628 485 659 498 q 708 387 686 451 q 714 243 730 323 z "},"à":{"ha":721,"x_min":97,"x_max":814,"o":"m 510 908 l 446 1108 l 570 1108 l 608 908 l 510 908 m 624 486 q 625 529 629 509 q 610 562 621 548 q 583 585 600 576 q 545 593 566 593 l 429 593 q 388 584 408 593 q 350 561 368 576 q 321 527 333 547 q 304 486 309 508 l 278 364 q 278 323 274 342 q 292 289 281 303 q 319 266 303 274 q 357 257 336 257 l 472 257 q 513 266 493 257 q 551 289 534 274 q 581 323 568 303 q 597 364 593 342 l 624 486 m 517 -16 l 525 22 q 513 15 519 18 q 500 7 507 11 q 457 -9 479 -3 q 414 -16 435 -16 l 298 -16 q 143 62 199 -16 q 106 145 115 100 q 110 243 97 190 l 186 607 q 225 705 197 660 q 297 789 252 750 q 486 865 386 865 l 602 865 q 758 790 704 865 q 791 607 814 714 l 659 -16 l 517 -16 z "},"á":{"ha":721,"x_min":97,"x_max":814,"o":"m 597 908 l 498 908 l 621 1108 l 746 1108 l 597 908 m 624 486 q 625 529 629 509 q 610 562 621 548 q 583 585 600 576 q 545 593 566 593 l 429 593 q 388 584 408 593 q 350 561 368 576 q 321 527 333 547 q 304 486 309 508 l 278 364 q 278 323 274 342 q 292 289 281 303 q 319 266 303 274 q 357 257 336 257 l 472 257 q 513 266 493 257 q 551 289 534 274 q 581 323 568 303 q 597 364 593 342 l 624 486 m 517 -16 l 525 22 q 513 15 519 18 q 500 7 507 11 q 457 -9 479 -3 q 414 -16 435 -16 l 298 -16 q 143 62 199 -16 q 106 145 115 100 q 110 243 97 190 l 186 607 q 225 705 197 660 q 297 789 252 750 q 486 865 386 865 l 602 865 q 758 790 704 865 q 791 607 814 714 l 659 -16 l 517 -16 z "},"â":{"ha":721,"x_min":97,"x_max":814,"o":"m 616 908 l 572 1000 l 490 908 l 392 908 l 542 1108 l 650 1108 l 714 908 l 616 908 m 624 486 q 625 529 629 509 q 610 562 621 548 q 583 585 600 576 q 545 593 566 593 l 429 593 q 388 584 408 593 q 350 561 368 576 q 321 527 333 547 q 304 486 309 508 l 278 364 q 278 323 274 342 q 292 289 281 303 q 319 266 303 274 q 357 257 336 257 l 472 257 q 513 266 493 257 q 551 289 534 274 q 581 323 568 303 q 597 364 593 342 l 624 486 m 517 -16 l 525 22 q 513 15 519 18 q 500 7 507 11 q 457 -9 479 -3 q 414 -16 435 -16 l 298 -16 q 143 62 199 -16 q 106 145 115 100 q 110 243 97 190 l 186 607 q 225 705 197 660 q 297 789 252 750 q 486 865 386 865 l 602 865 q 758 790 704 865 q 791 607 814 714 l 659 -16 l 517 -16 z "},"ã":{"ha":721,"x_min":97,"x_max":814,"o":"m 747 961 q 681 922 715 935 q 611 908 648 908 q 583 915 597 908 q 551 936 568 922 q 505 957 524 957 q 439 941 474 957 q 363 889 404 924 l 390 1025 q 460 1069 425 1055 q 533 1083 496 1083 q 562 1076 547 1083 q 593 1057 576 1069 q 617 1041 606 1046 q 637 1035 629 1035 q 782 1103 699 1035 l 753 972 l 747 961 m 624 486 q 625 529 629 509 q 610 562 621 548 q 583 585 600 576 q 545 593 566 593 l 429 593 q 388 584 408 593 q 350 561 368 576 q 321 527 333 547 q 304 486 309 508 l 278 364 q 278 323 274 342 q 292 289 281 303 q 319 266 303 274 q 357 257 336 257 l 472 257 q 513 266 493 257 q 551 289 534 274 q 581 323 568 303 q 597 364 593 342 l 624 486 m 517 -16 l 525 22 q 513 15 519 18 q 500 7 507 11 q 457 -9 479 -3 q 414 -16 435 -16 l 298 -16 q 143 62 199 -16 q 106 145 115 100 q 110 243 97 190 l 186 607 q 225 705 197 660 q 297 789 252 750 q 486 865 386 865 l 602 865 q 758 790 704 865 q 791 607 814 714 l 659 -16 l 517 -16 z "},"ä":{"ha":721,"x_min":97,"x_max":814,"o":"m 597 908 l 628 1060 l 772 1060 l 741 908 l 597 908 m 366 908 l 397 1060 l 541 1060 l 510 908 l 366 908 m 624 486 q 625 529 629 509 q 610 562 621 548 q 583 585 600 576 q 545 593 566 593 l 429 593 q 388 584 408 593 q 350 561 368 576 q 321 527 333 547 q 304 486 309 508 l 278 364 q 278 323 274 342 q 292 289 281 303 q 319 266 303 274 q 357 257 336 257 l 472 257 q 513 266 493 257 q 551 289 534 274 q 581 323 568 303 q 597 364 593 342 l 624 486 m 517 -16 l 525 22 q 513 15 519 18 q 500 7 507 11 q 457 -9 479 -3 q 414 -16 435 -16 l 298 -16 q 143 62 199 -16 q 106 145 115 100 q 110 243 97 190 l 186 607 q 225 705 197 660 q 297 789 252 750 q 486 865 386 865 l 602 865 q 758 790 704 865 q 791 607 814 714 l 659 -16 l 517 -16 z "},"å":{"ha":721,"x_min":97,"x_max":814,"o":"m 665 1069 q 666 1101 669 1086 q 655 1127 663 1116 q 634 1145 647 1138 q 606 1152 622 1152 q 574 1145 589 1152 q 545 1127 558 1138 q 523 1101 532 1116 q 510 1069 513 1086 q 509 1038 506 1053 q 520 1011 512 1023 q 541 993 528 1000 q 570 986 554 986 q 602 993 586 986 q 631 1011 618 1000 q 653 1038 644 1023 q 665 1069 662 1053 m 741 1069 q 671 957 726 1004 q 614 921 644 933 q 553 908 585 908 q 498 921 522 908 q 456 957 475 933 q 435 1069 420 1002 q 459 1131 442 1102 q 504 1182 475 1159 q 621 1229 557 1229 q 677 1217 653 1229 q 720 1182 701 1206 q 742 1131 736 1159 q 741 1069 748 1102 m 624 486 q 625 529 629 509 q 610 562 621 548 q 583 585 600 576 q 545 593 566 593 l 429 593 q 388 584 408 593 q 350 561 368 576 q 321 527 333 547 q 304 486 309 508 l 278 364 q 278 323 274 342 q 292 289 281 303 q 319 266 303 274 q 357 257 336 257 l 472 257 q 513 266 493 257 q 551 289 534 274 q 581 323 568 303 q 597 364 593 342 l 624 486 m 517 -16 l 525 22 q 513 15 519 18 q 500 7 507 11 q 457 -9 479 -3 q 414 -16 435 -16 l 298 -16 q 143 62 199 -16 q 106 145 115 100 q 110 243 97 190 l 186 607 q 225 705 197 660 q 297 789 252 750 q 486 865 386 865 l 602 865 q 758 790 704 865 q 791 607 814 714 l 659 -16 l 517 -16 z "},"æ":{"ha":1067,"x_min":97,"x_max":1192,"o":"m 624 486 q 625 529 629 509 q 610 562 621 548 q 583 585 600 576 q 545 593 566 593 l 429 593 q 388 584 408 593 q 350 561 368 576 q 321 527 333 547 q 304 486 309 508 l 278 364 q 278 323 274 342 q 292 289 281 303 q 319 266 303 274 q 357 257 336 257 l 472 257 q 513 266 493 257 q 551 289 534 274 q 581 323 568 303 q 597 364 593 342 l 624 486 m 807 -16 q 730 -2 765 -16 q 671 39 696 12 l 659 -16 l 517 -16 l 525 22 q 513 15 519 18 q 500 7 507 11 q 457 -9 479 -3 q 414 -16 435 -16 l 298 -16 q 143 62 199 -16 q 106 145 115 100 q 110 243 97 190 l 186 607 q 225 705 197 660 q 297 789 252 750 q 486 865 386 865 l 555 865 q 622 856 591 865 q 677 827 653 846 q 719 783 702 809 q 743 724 736 756 q 840 817 783 779 q 915 853 877 840 q 994 865 954 865 l 1192 865 l 1135 593 l 890 593 q 853 586 871 593 q 818 566 834 578 q 789 536 802 553 q 770 500 777 519 l 1000 500 l 966 350 l 736 350 q 740 313 734 330 q 757 284 746 296 q 784 264 768 271 q 819 257 800 257 l 1064 257 l 1006 -16 l 807 -16 z "},"ç":{"ha":721,"x_min":97,"x_max":846,"o":"m 443 -16 l 432 -40 q 457 -57 446 -46 q 475 -81 469 -67 q 483 -112 481 -95 q 481 -146 485 -128 q 464 -190 477 -170 q 434 -225 452 -210 q 395 -250 416 -241 q 351 -258 374 -258 l 240 -258 l 275 -192 l 364 -192 q 398 -178 382 -192 q 418 -146 414 -165 q 413 -113 422 -127 q 385 -100 404 -100 l 311 -100 l 345 -16 l 298 -16 q 143 62 199 -16 q 106 145 115 100 q 110 243 97 190 l 186 607 q 225 705 197 660 q 297 789 252 750 q 486 865 386 865 l 846 865 l 789 593 l 429 593 q 388 584 408 593 q 350 561 368 576 q 321 527 333 547 q 304 486 309 508 l 278 364 q 278 323 274 342 q 292 289 281 303 q 319 266 303 274 q 357 257 336 257 l 717 257 l 659 -16 l 443 -16 z "},"è":{"ha":721,"x_min":97,"x_max":846,"o":"m 510 908 l 446 1108 l 570 1108 l 608 908 l 510 908 m 298 -16 q 143 62 199 -16 q 106 145 115 100 q 110 243 97 190 l 186 607 q 225 705 197 660 q 297 789 252 750 q 486 865 386 865 l 846 865 l 789 593 l 429 593 q 391 586 410 593 q 355 566 372 578 q 327 536 339 553 q 307 500 314 519 l 654 500 l 621 350 l 275 350 q 279 313 273 330 q 295 284 284 296 q 322 264 306 271 q 357 257 338 257 l 717 257 l 659 -16 l 298 -16 z "},"é":{"ha":721,"x_min":97,"x_max":846,"o":"m 597 908 l 498 908 l 621 1108 l 746 1108 l 597 908 m 298 -16 q 143 62 199 -16 q 106 145 115 100 q 110 243 97 190 l 186 607 q 225 705 197 660 q 297 789 252 750 q 486 865 386 865 l 846 865 l 789 593 l 429 593 q 391 586 410 593 q 355 566 372 578 q 327 536 339 553 q 307 500 314 519 l 654 500 l 621 350 l 275 350 q 279 313 273 330 q 295 284 284 296 q 322 264 306 271 q 357 257 338 257 l 717 257 l 659 -16 l 298 -16 z "},"ê":{"ha":721,"x_min":97,"x_max":846,"o":"m 616 908 l 572 1000 l 490 908 l 392 908 l 542 1108 l 650 1108 l 714 908 l 616 908 m 298 -16 q 143 62 199 -16 q 106 145 115 100 q 110 243 97 190 l 186 607 q 225 705 197 660 q 297 789 252 750 q 486 865 386 865 l 846 865 l 789 593 l 429 593 q 391 586 410 593 q 355 566 372 578 q 327 536 339 553 q 307 500 314 519 l 654 500 l 621 350 l 275 350 q 279 313 273 330 q 295 284 284 296 q 322 264 306 271 q 357 257 338 257 l 717 257 l 659 -16 l 298 -16 z "},"ë":{"ha":721,"x_min":97,"x_max":846,"o":"m 597 908 l 628 1060 l 772 1060 l 741 908 l 597 908 m 366 908 l 397 1060 l 541 1060 l 510 908 l 366 908 m 298 -16 q 143 62 199 -16 q 106 145 115 100 q 110 243 97 190 l 186 607 q 225 705 197 660 q 297 789 252 750 q 486 865 386 865 l 846 865 l 789 593 l 429 593 q 391 586 410 593 q 355 566 372 578 q 327 536 339 553 q 307 500 314 519 l 654 500 l 621 350 l 275 350 q 279 313 273 330 q 295 284 284 296 q 322 264 306 271 q 357 257 338 257 l 717 257 l 659 -16 l 298 -16 z "},"ì":{"ha":258,"x_min":53,"x_max":383,"o":"m 279 908 l 215 1108 l 339 1108 l 378 908 l 279 908 m 53 -16 l 240 865 l 383 865 l 197 -16 l 53 -16 z "},"í":{"ha":258,"x_min":53,"x_max":515,"o":"m 366 908 l 267 908 l 390 1108 l 515 1108 l 366 908 m 53 -16 l 240 865 l 383 865 l 197 -16 l 53 -16 z "},"î":{"ha":258,"x_min":53,"x_max":484,"o":"m 385 908 l 342 1000 l 260 908 l 160 908 l 311 1108 l 419 1108 l 484 908 l 385 908 m 53 -16 l 240 865 l 383 865 l 197 -16 l 53 -16 z "},"ï":{"ha":258,"x_min":53,"x_max":541,"o":"m 135 908 l 167 1060 l 310 1060 l 278 908 l 135 908 m 366 908 l 397 1060 l 541 1060 l 510 908 l 366 908 m 53 -16 l 240 865 l 383 865 l 197 -16 l 53 -16 z "},"ð":{"ha":721,"x_min":97,"x_max":1000,"o":"m 624 486 q 624 527 629 508 q 609 561 620 547 q 582 584 598 576 q 545 593 565 593 l 429 593 q 388 584 408 593 q 350 561 368 576 q 321 527 333 547 q 304 486 309 508 l 278 364 q 278 323 274 342 q 292 289 281 303 q 319 266 303 274 q 357 257 336 257 l 472 257 q 514 266 493 257 q 551 288 534 274 q 581 322 568 302 q 597 364 593 342 l 624 486 m 852 897 l 714 243 q 676 144 703 189 q 604 61 649 99 q 414 -16 517 -16 l 298 -16 q 143 62 199 -16 q 106 145 115 100 q 110 243 97 190 l 186 607 q 225 705 197 660 q 297 789 252 750 q 486 865 386 865 l 602 865 q 677 843 646 865 q 688 836 683 840 q 696 829 692 833 l 711 897 l 595 897 l 627 1047 l 1000 1047 l 968 897 l 852 897 z "},"ñ":{"ha":721,"x_min":53,"x_max":814,"o":"m 747 961 q 681 922 715 935 q 611 908 648 908 q 583 915 597 908 q 551 936 568 922 q 505 957 524 957 q 439 941 474 957 q 363 889 404 924 l 390 1025 q 460 1069 425 1055 q 533 1083 496 1083 q 562 1076 547 1083 q 593 1057 576 1069 q 617 1041 606 1046 q 637 1035 629 1035 q 782 1103 699 1035 l 753 972 l 747 961 m 517 -16 l 624 486 q 625 529 629 509 q 610 562 621 548 q 583 585 600 576 q 545 593 566 593 l 429 593 q 388 584 408 593 q 350 561 368 576 q 321 527 333 547 q 304 486 309 508 l 197 -16 l 53 -16 l 186 607 q 296 789 209 712 q 486 865 385 865 l 602 865 q 758 790 704 865 q 791 607 814 714 l 659 -16 l 517 -16 z "},"ò":{"ha":721,"x_min":85,"x_max":803,"o":"m 510 908 l 446 1108 l 570 1108 l 608 908 l 510 908 m 624 486 q 624 527 629 508 q 609 561 620 547 q 582 584 598 576 q 545 593 565 593 l 429 593 q 388 584 408 593 q 350 561 368 576 q 321 527 333 547 q 304 486 309 508 l 278 364 q 278 323 274 342 q 292 289 281 303 q 319 266 303 274 q 357 257 336 257 l 472 257 q 514 266 493 257 q 551 288 534 274 q 581 322 568 302 q 597 364 593 342 l 624 486 m 714 243 q 676 144 703 189 q 604 61 649 99 q 414 -16 517 -16 l 298 -16 q 142 61 197 -16 q 110 243 85 138 l 186 607 q 296 789 209 712 q 486 865 385 865 l 602 865 q 691 846 652 865 q 757 789 730 827 q 794 705 785 750 q 791 607 803 660 l 714 243 z "},"ó":{"ha":721,"x_min":85,"x_max":803,"o":"m 597 908 l 498 908 l 621 1108 l 746 1108 l 597 908 m 624 486 q 624 527 629 508 q 609 561 620 547 q 582 584 598 576 q 545 593 565 593 l 429 593 q 388 584 408 593 q 350 561 368 576 q 321 527 333 547 q 304 486 309 508 l 278 364 q 278 323 274 342 q 292 289 281 303 q 319 266 303 274 q 357 257 336 257 l 472 257 q 514 266 493 257 q 551 288 534 274 q 581 322 568 302 q 597 364 593 342 l 624 486 m 714 243 q 676 144 703 189 q 604 61 649 99 q 414 -16 517 -16 l 298 -16 q 142 61 197 -16 q 110 243 85 138 l 186 607 q 296 789 209 712 q 486 865 385 865 l 602 865 q 691 846 652 865 q 757 789 730 827 q 794 705 785 750 q 791 607 803 660 l 714 243 z "},"ô":{"ha":721,"x_min":85,"x_max":803,"o":"m 616 908 l 572 1000 l 490 908 l 392 908 l 542 1108 l 650 1108 l 714 908 l 616 908 m 624 486 q 624 527 629 508 q 609 561 620 547 q 582 584 598 576 q 545 593 565 593 l 429 593 q 388 584 408 593 q 350 561 368 576 q 321 527 333 547 q 304 486 309 508 l 278 364 q 278 323 274 342 q 292 289 281 303 q 319 266 303 274 q 357 257 336 257 l 472 257 q 514 266 493 257 q 551 288 534 274 q 581 322 568 302 q 597 364 593 342 l 624 486 m 714 243 q 676 144 703 189 q 604 61 649 99 q 414 -16 517 -16 l 298 -16 q 142 61 197 -16 q 110 243 85 138 l 186 607 q 296 789 209 712 q 486 865 385 865 l 602 865 q 691 846 652 865 q 757 789 730 827 q 794 705 785 750 q 791 607 803 660 l 714 243 z "},"õ":{"ha":721,"x_min":85,"x_max":803,"o":"m 747 961 q 681 922 715 935 q 611 908 648 908 q 583 915 597 908 q 551 936 568 922 q 505 957 524 957 q 439 941 474 957 q 363 889 404 924 l 390 1025 q 460 1069 425 1055 q 533 1083 496 1083 q 562 1076 547 1083 q 593 1057 576 1069 q 617 1041 606 1046 q 637 1035 629 1035 q 782 1103 699 1035 l 753 972 l 747 961 m 624 486 q 624 527 629 508 q 609 561 620 547 q 582 584 598 576 q 545 593 565 593 l 429 593 q 388 584 408 593 q 350 561 368 576 q 321 527 333 547 q 304 486 309 508 l 278 364 q 278 323 274 342 q 292 289 281 303 q 319 266 303 274 q 357 257 336 257 l 472 257 q 514 266 493 257 q 551 288 534 274 q 581 322 568 302 q 597 364 593 342 l 624 486 m 714 243 q 676 144 703 189 q 604 61 649 99 q 414 -16 517 -16 l 298 -16 q 142 61 197 -16 q 110 243 85 138 l 186 607 q 296 789 209 712 q 486 865 385 865 l 602 865 q 691 846 652 865 q 757 789 730 827 q 794 705 785 750 q 791 607 803 660 l 714 243 z "},"ö":{"ha":721,"x_min":85,"x_max":803,"o":"m 366 908 l 397 1060 l 541 1060 l 510 908 l 366 908 m 597 908 l 628 1060 l 772 1060 l 741 908 l 597 908 m 624 486 q 624 527 629 508 q 609 561 620 547 q 582 584 598 576 q 545 593 565 593 l 429 593 q 388 584 408 593 q 350 561 368 576 q 321 527 333 547 q 304 486 309 508 l 278 364 q 278 323 274 342 q 292 289 281 303 q 319 266 303 274 q 357 257 336 257 l 472 257 q 514 266 493 257 q 551 288 534 274 q 581 322 568 302 q 597 364 593 342 l 624 486 m 714 243 q 676 144 703 189 q 604 61 649 99 q 414 -16 517 -16 l 298 -16 q 142 61 197 -16 q 110 243 85 138 l 186 607 q 296 789 209 712 q 486 865 385 865 l 602 865 q 691 846 652 865 q 757 789 730 827 q 794 705 785 750 q 791 607 803 660 l 714 243 z "},"÷":{"ha":606,"x_min":134,"x_max":650,"o":"m 332 581 l 374 781 l 562 781 l 521 581 l 332 581 m 222 71 l 265 269 l 454 269 l 412 71 l 222 71 m 134 363 l 160 489 l 650 489 l 624 363 l 134 363 z "},"ø":{"ha":721,"x_min":3,"x_max":899,"o":"m 278 364 q 276 335 275 349 q 281 309 277 321 l 568 589 q 545 593 557 593 l 429 593 q 388 584 408 593 q 350 561 368 576 q 321 527 333 547 q 304 486 309 508 l 278 364 m 624 486 q 619 541 630 518 l 332 260 q 344 258 338 258 q 357 257 349 257 l 472 257 q 514 266 493 257 q 551 288 534 274 q 581 322 568 302 q 597 364 593 342 l 624 486 m 791 711 q 799 661 799 687 q 791 607 798 635 l 714 243 q 676 144 703 189 q 604 61 649 99 q 414 -16 517 -16 l 298 -16 q 138 69 193 -16 l 45 -21 l 3 36 l 107 140 q 103 190 103 163 q 110 243 104 216 l 186 607 q 296 789 209 712 q 486 865 385 865 l 602 865 q 695 844 656 865 q 762 782 735 823 l 856 871 l 899 814 l 791 711 z "},"ù":{"ha":721,"x_min":85,"x_max":846,"o":"m 510 908 l 446 1108 l 570 1108 l 608 908 l 510 908 m 714 243 q 676 144 703 189 q 604 61 649 99 q 414 -16 517 -16 l 298 -16 q 142 61 197 -16 q 110 243 85 138 l 240 865 l 383 865 l 278 364 q 278 323 274 342 q 292 289 281 303 q 319 266 303 274 q 357 257 336 257 l 472 257 q 514 266 493 257 q 551 288 534 274 q 581 322 568 302 q 597 364 593 342 l 704 865 l 846 865 l 714 243 z "},"ú":{"ha":721,"x_min":85,"x_max":846,"o":"m 597 908 l 498 908 l 621 1108 l 746 1108 l 597 908 m 714 243 q 676 144 703 189 q 604 61 649 99 q 414 -16 517 -16 l 298 -16 q 142 61 197 -16 q 110 243 85 138 l 240 865 l 383 865 l 278 364 q 278 323 274 342 q 292 289 281 303 q 319 266 303 274 q 357 257 336 257 l 472 257 q 514 266 493 257 q 551 288 534 274 q 581 322 568 302 q 597 364 593 342 l 704 865 l 846 865 l 714 243 z "},"û":{"ha":721,"x_min":85,"x_max":846,"o":"m 616 908 l 572 1000 l 490 908 l 392 908 l 542 1108 l 650 1108 l 714 908 l 616 908 m 714 243 q 676 144 703 189 q 604 61 649 99 q 414 -16 517 -16 l 298 -16 q 142 61 197 -16 q 110 243 85 138 l 240 865 l 383 865 l 278 364 q 278 323 274 342 q 292 289 281 303 q 319 266 303 274 q 357 257 336 257 l 472 257 q 514 266 493 257 q 551 288 534 274 q 581 322 568 302 q 597 364 593 342 l 704 865 l 846 865 l 714 243 z "},"ü":{"ha":721,"x_min":85,"x_max":846,"o":"m 366 908 l 397 1060 l 541 1060 l 510 908 l 366 908 m 597 908 l 628 1060 l 772 1060 l 741 908 l 597 908 m 714 243 q 676 144 703 189 q 604 61 649 99 q 414 -16 517 -16 l 298 -16 q 142 61 197 -16 q 110 243 85 138 l 240 865 l 383 865 l 278 364 q 278 323 274 342 q 292 289 281 303 q 319 266 303 274 q 357 257 336 257 l 472 257 q 514 266 493 257 q 551 288 534 274 q 581 322 568 302 q 597 364 593 342 l 704 865 l 846 865 l 714 243 z "},"ý":{"ha":721,"x_min":97,"x_max":846,"o":"m 597 908 l 498 908 l 621 1108 l 746 1108 l 597 908 m 636 -122 q 598 -221 625 -176 q 526 -304 571 -266 q 435 -361 482 -343 q 338 -379 389 -379 l 208 -379 l 267 -107 l 395 -107 q 436 -99 416 -107 q 474 -77 457 -91 q 503 -43 491 -62 q 519 0 515 -23 l 525 22 q 513 15 519 18 q 500 7 507 11 q 458 -9 479 -3 q 414 -16 437 -16 l 298 -16 q 143 62 199 -16 q 106 145 115 100 q 110 243 97 190 l 240 865 l 383 865 l 278 364 q 278 323 274 342 q 292 289 281 303 q 319 266 303 274 q 357 257 336 257 l 472 257 q 514 266 493 257 q 551 288 534 274 q 581 322 568 302 q 597 364 593 342 l 704 865 l 846 865 l 636 -122 z "},"þ":{"ha":721,"x_min":3,"x_max":788,"o":"m 597 364 q 598 405 602 386 q 583 439 593 425 q 555 462 572 454 q 518 471 538 471 l 300 471 l 256 257 l 472 257 q 513 266 493 257 q 551 289 534 274 q 581 323 568 303 q 597 364 593 342 m 714 243 q 675 145 703 190 q 603 62 648 100 q 414 -16 515 -16 l 197 -16 l 146 -258 l 3 -258 l 267 986 l 411 986 l 358 743 l 576 743 q 732 667 676 743 q 765 486 788 592 l 714 243 z "},"ÿ":{"ha":721,"x_min":97,"x_max":846,"o":"m 597 908 l 628 1060 l 772 1060 l 741 908 l 597 908 m 366 908 l 397 1060 l 541 1060 l 510 908 l 366 908 m 636 -122 q 598 -221 625 -176 q 526 -304 571 -266 q 435 -361 482 -343 q 338 -379 389 -379 l 208 -379 l 267 -107 l 395 -107 q 436 -99 416 -107 q 474 -77 457 -91 q 503 -43 491 -62 q 519 0 515 -23 l 525 22 q 513 15 519 18 q 500 7 507 11 q 457 -9 479 -3 q 414 -16 435 -16 l 298 -16 q 143 62 199 -16 q 106 145 115 100 q 110 243 97 190 l 240 865 l 383 865 l 278 364 q 278 323 274 342 q 292 289 281 303 q 319 266 303 274 q 357 257 336 257 l 472 257 q 514 266 493 257 q 551 288 534 274 q 581 322 568 302 q 597 364 593 342 l 704 865 l 846 865 l 636 -122 z "},"¯":{"ha":576,"x_min":0,"x_max":576,"o":"m 0 836 l 0 986 l 576 986 l 576 836 l 0 836 z "},"ˉ":{"ha":576,"x_min":0,"x_max":576,"o":"m 0 836 l 0 986 l 576 986 l 576 836 l 0 836 z "},"ı":{"ha":258,"x_min":53,"x_max":383,"o":"m 53 -16 l 240 865 l 383 865 l 197 -16 l 53 -16 z "},"ˇ":{"ha":421,"x_min":258,"x_max":582,"o":"m 432 787 l 323 787 l 258 986 l 358 986 l 401 896 l 482 986 l 582 986 l 432 787 z "},"˘":{"ha":1400,"x_min":60,"x_max":1339,"o":"m 465 278 l 465 532 l 572 532 l 572 278 l 465 278 m 1196 779 l 1186 896 l 970 896 l 970 766 l 1071 766 l 1071 832 l 1160 832 l 1160 612 l 1071 612 l 1071 676 l 878 676 l 878 986 l 1282 986 l 1282 779 l 1196 779 m 1244 146 q 1105 221 1244 221 l 961 221 l 961 311 l 1120 311 q 1152 315 1136 311 q 1182 329 1168 319 q 1213 378 1213 349 q 1204 406 1213 395 q 1181 427 1196 418 q 1147 438 1165 434 q 1108 441 1129 441 l 793 441 l 946 74 l 1105 74 q 1162 77 1139 74 q 1200 85 1185 79 q 1244 146 1244 102 m 180 441 l 180 75 l 846 75 l 818 146 l 514 146 l 551 235 l 782 235 l 700 441 l 693 441 l 693 530 l 760 530 l 760 677 l 465 677 l 465 897 l 358 897 l 358 441 l 180 441 m 1339 136 q 1275 21 1339 62 q 1217 -6 1248 3 q 1147 -16 1186 -16 l 90 -16 l 90 529 l 267 529 l 267 897 l 151 897 l 151 823 l 60 823 l 72 986 l 627 986 l 627 897 l 559 897 l 559 768 l 851 768 l 851 529 l 1197 529 l 1197 647 l 1286 647 l 1286 456 q 1301 422 1295 440 q 1307 382 1307 404 q 1254 272 1307 311 q 1318 219 1297 254 q 1339 136 1339 184 z "},"˚":{"ha":421,"x_min":219,"x_max":545,"o":"m 465 827 q 465 858 468 843 q 453 884 462 873 q 432 902 445 895 q 403 908 419 908 q 371 902 387 908 q 342 884 355 895 q 319 858 329 873 q 307 827 310 843 q 306 795 303 810 q 318 768 309 780 q 339 750 326 757 q 368 743 352 743 q 400 750 385 743 q 429 768 416 757 q 452 795 442 780 q 465 827 462 810 m 539 827 q 469 714 524 761 q 412 678 441 690 q 351 665 383 665 q 256 714 288 665 q 233 827 219 759 q 257 887 239 859 q 302 939 275 916 q 360 975 330 963 q 421 986 389 986 q 476 975 452 986 q 517 939 500 963 q 540 887 534 916 q 539 827 545 859 z "},"−":{"ha":606,"x_min":134,"x_max":650,"o":"m 134 363 l 160 489 l 650 489 l 624 363 l 134 363 z "}," ":{"ha":519,"x_min":0,"x_max":0,"o":""}}}
